<svg width="70" height="71" viewBox="0 0 70 71" fill="none" xmlns="http://www.w3.org/2000/svg">
    <path d="M32.0833 35.7501C38.5292 35.7501 43.75 30.5292 43.75 24.0834C43.75 17.6376 38.5292 12.4167 32.0833 12.4167C25.6375 12.4167 20.4167 17.6376 20.4167 24.0834C20.4167 30.5292 25.6375 35.7501 32.0833 35.7501ZM32.0833 18.2501C35.2917 18.2501 37.9167 20.8751 37.9167 24.0834C37.9167 27.2917 35.2917 29.9167 32.0833 29.9167C28.875 29.9167 26.25 27.2917 26.25 24.0834C26.25 20.8751 28.875 18.2501 32.0833 18.2501ZM14.5833 53.2501C15.1667 51.4126 22.0792 48.3501 29.05 47.5917L35 41.7584C33.8625 41.6417 33.0167 41.5834 32.0833 41.5834C24.2958 41.5834 8.75 45.4917 8.75 53.2501V59.0834H35L29.1667 53.2501H14.5833ZM60.0833 37.2084L45.1208 52.2876L39.0833 46.2209L35 50.3334L45.1208 60.5417L64.1667 41.3209L60.0833 37.2084Z" fill="white"/>
</svg>
