<svg width="131" height="42" viewBox="0 0 131 42" fill="none" xmlns="http://www.w3.org/2000/svg">
    <path d="M28.0785 18.4337C27.9926 18.4376 27.9069 18.4235 27.8267 18.3926C27.7466 18.3616 27.6738 18.3143 27.613 18.2538C27.5522 18.1932 27.5047 18.1207 27.4736 18.0409C27.4425 17.9611 27.4284 17.8757 27.4323 17.7902V1.05873C27.4291 0.973294 27.4435 0.888116 27.4746 0.808435C27.5058 0.728754 27.5529 0.656255 27.6132 0.595397C27.6743 0.535382 27.7472 0.488442 27.8272 0.457457C27.9072 0.426472 27.9927 0.412096 28.0785 0.415212H39.6073C39.6931 0.41221 39.7786 0.426638 39.8586 0.457617C39.9386 0.488596 40.0114 0.535475 40.0726 0.595397C40.1328 0.656345 40.1799 0.728859 40.211 0.808518C40.2421 0.888177 40.2566 0.973312 40.2536 1.05873V3.24669C40.2574 3.33222 40.2433 3.41761 40.2122 3.49743C40.1811 3.57724 40.1337 3.64972 40.0729 3.71026C40.0121 3.7708 39.9393 3.81807 39.8591 3.84905C39.779 3.88003 39.6932 3.89405 39.6073 3.89021H31.8105C31.7188 3.89021 31.6309 3.92648 31.566 3.99105C31.5012 4.05561 31.4648 4.14318 31.4648 4.23449V7.89675C31.4648 7.94193 31.4737 7.98667 31.4911 8.02841C31.5085 8.07014 31.534 8.10805 31.5661 8.13997C31.5982 8.17189 31.6363 8.19719 31.6782 8.21442C31.7202 8.23165 31.7651 8.24047 31.8105 8.24039H39.0903C39.1762 8.23685 39.2618 8.25107 39.3418 8.28215C39.4218 8.31324 39.4945 8.36051 39.5552 8.42099C39.616 8.48147 39.6634 8.55383 39.6946 8.63351C39.7259 8.71319 39.7401 8.79845 39.7366 8.88391V11.0719C39.7379 11.1533 39.7226 11.2342 39.6915 11.3096C39.6604 11.3849 39.6141 11.4531 39.5556 11.5101C39.4944 11.57 39.4216 11.6169 39.3416 11.6479C39.2616 11.6789 39.1761 11.6933 39.0903 11.6903H31.8105C31.7651 11.6902 31.7202 11.699 31.6782 11.7163C31.6363 11.7335 31.5982 11.7588 31.5661 11.7907C31.534 11.8226 31.5085 11.8605 31.4911 11.9023C31.4737 11.944 31.4648 11.9887 31.4648 12.0339V17.7902C31.4686 17.8757 31.4546 17.9611 31.4234 18.0409C31.3923 18.1207 31.3449 18.1932 31.2841 18.2538C31.2233 18.3143 31.1505 18.3616 31.0703 18.3926C30.9902 18.4235 30.9044 18.4376 30.8185 18.4337H28.0785Z" fill="white"/>
    <path d="M43.8217 18.4337C43.7358 18.4376 43.65 18.4235 43.5699 18.3926C43.4897 18.3616 43.4169 18.3143 43.3561 18.2538C43.2953 18.1932 43.2479 18.1207 43.2168 18.0409C43.1856 17.9611 43.1716 17.8757 43.1754 17.7902V1.05873C43.1723 0.973294 43.1867 0.888116 43.2178 0.808435C43.2489 0.728754 43.2961 0.656255 43.3564 0.595397C43.4175 0.535382 43.4903 0.488442 43.5703 0.457457C43.6503 0.426472 43.7359 0.412096 43.8217 0.415212H46.7426C46.8284 0.41221 46.9139 0.426638 46.9939 0.457617C47.0739 0.488596 47.1467 0.535475 47.2079 0.595397C47.2681 0.656345 47.3152 0.728859 47.3463 0.808518C47.3774 0.888177 47.3919 0.973312 47.3889 1.05873V17.7902C47.3927 17.8757 47.3787 17.9611 47.3475 18.0409C47.3164 18.1207 47.269 18.1932 47.2082 18.2538C47.1474 18.3143 47.0746 18.3616 46.9944 18.3926C46.9143 18.4235 46.8285 18.4376 46.7426 18.4337H43.8217Z" fill="white"/>
    <path d="M51.8607 18.4337C51.7748 18.4376 51.6891 18.4235 51.6089 18.3926C51.5288 18.3616 51.456 18.3143 51.3952 18.2538C51.3344 18.1932 51.2869 18.1207 51.2558 18.0409C51.2247 17.9611 51.2106 17.8757 51.2145 17.7902V1.05873C51.2113 0.973294 51.2257 0.888116 51.2569 0.808435C51.288 0.728754 51.3351 0.656255 51.3954 0.595397C51.4566 0.535382 51.5294 0.488442 51.6094 0.457457C51.6894 0.426472 51.7749 0.412096 51.8607 0.415212H54.213C54.4715 0.415212 54.6609 0.475702 54.7817 0.595397C54.8723 0.678613 54.9506 0.774154 55.0143 0.879188L61.2796 10.6227C61.32 10.6852 61.3796 10.7331 61.4496 10.7591C61.5195 10.7851 61.5961 10.7878 61.6677 10.7668C61.7394 10.7459 61.8023 10.7024 61.8471 10.6429C61.8918 10.5834 61.9161 10.5111 61.9161 10.4367V1.05873C61.913 0.973294 61.9274 0.888116 61.9585 0.808435C61.9896 0.728754 62.0368 0.656255 62.0971 0.595397C62.1541 0.537101 62.2225 0.491043 62.2981 0.460055C62.3737 0.429068 62.4548 0.413807 62.5365 0.415212H65.1731C65.2589 0.41221 65.3444 0.426638 65.4244 0.457617C65.5044 0.488596 65.5772 0.535475 65.6384 0.595397C65.6986 0.656345 65.7457 0.728859 65.7768 0.808518C65.8079 0.888177 65.8224 0.973312 65.8194 1.05873V17.7902C65.8204 17.9581 65.7555 18.1198 65.6384 18.2407C65.5792 18.3041 65.5071 18.3541 65.4268 18.3874C65.3465 18.4207 65.26 18.4365 65.1731 18.4337H62.795C62.5365 18.4337 62.3513 18.3694 62.2392 18.2407C62.141 18.1283 62.0661 18.0452 62.0144 17.9916C61.9996 17.976 61.9862 17.9592 61.9743 17.9414L55.7523 8.53062C55.7113 8.46844 55.6511 8.42118 55.5808 8.39592C55.5105 8.37066 55.4339 8.36875 55.3624 8.3905C55.291 8.41224 55.2285 8.45645 55.1844 8.51652C55.1403 8.57658 55.1169 8.64926 55.1177 8.72367V17.7902C55.1216 17.8757 55.1075 17.9611 55.0764 18.0409C55.0453 18.1207 54.9978 18.1932 54.937 18.2538C54.8762 18.3143 54.8035 18.3616 54.7233 18.3926C54.6432 18.4235 54.5574 18.4376 54.4715 18.4337H51.8607Z" fill="white"/>
    <path d="M28.0802 41.6003C27.9116 41.6015 27.7493 41.5371 27.6278 41.4208C27.564 41.3617 27.5137 41.2898 27.4803 41.2097C27.4469 41.1297 27.431 41.0434 27.4339 40.9568V24.2253C27.4311 24.1388 27.447 24.0527 27.4804 23.9727C27.5139 23.8928 27.5641 23.8209 27.6278 23.762C27.7492 23.6455 27.9115 23.5808 28.0802 23.5818H30.4842C30.7426 23.5818 30.9365 23.6507 31.0658 23.7884C31.1821 23.9119 31.2667 24.0072 31.3204 24.0754C31.332 24.0898 31.3422 24.1053 31.3508 24.1217L35.791 32.2686C35.8208 32.3229 35.8647 32.3682 35.9181 32.3997C35.9714 32.4312 36.0324 32.4479 36.0944 32.4479C36.1565 32.4479 36.2174 32.4312 36.2708 32.3997C36.3242 32.3682 36.3681 32.3229 36.3979 32.2686L40.9015 24.096C40.9701 23.9834 41.0526 23.8799 41.147 23.7877C41.2763 23.65 41.4701 23.5812 41.7286 23.5812H44.1326C44.2185 23.5774 44.3042 23.5915 44.3843 23.6225C44.4644 23.6535 44.5372 23.7008 44.5979 23.7613C44.6587 23.8218 44.7062 23.8943 44.7373 23.9741C44.7685 24.0538 44.7826 24.1392 44.7789 24.2247V40.9561C44.7827 41.0417 44.7686 41.1271 44.7375 41.2069C44.7064 41.2867 44.659 41.3592 44.5982 41.4197C44.5374 41.4803 44.4646 41.5275 44.3844 41.5585C44.3043 41.5895 44.2185 41.6035 44.1326 41.5997H41.496C41.4143 41.6012 41.3332 41.586 41.2576 41.5552C41.182 41.5243 41.1136 41.4783 41.0566 41.4201C40.9962 41.3592 40.949 41.2866 40.9179 41.2068C40.8868 41.127 40.8724 41.0417 40.8756 40.9561V31.9314C40.8751 31.8549 40.8489 31.7807 40.8013 31.7206C40.7536 31.6605 40.6872 31.6179 40.6126 31.5996C40.5379 31.5813 40.4592 31.5883 40.389 31.6195C40.3188 31.6507 40.261 31.7043 40.2249 31.7719L37.5927 36.6838C37.5054 36.8394 37.3917 36.9787 37.2567 37.0957C37.1045 37.2208 36.911 37.285 36.7139 37.2759H35.4989C35.3018 37.2852 35.1082 37.2209 34.9561 37.0957C34.8206 36.9791 34.7069 36.8397 34.6201 36.6838L31.9879 31.7719C31.9517 31.7043 31.894 31.6507 31.8238 31.6195C31.7535 31.5883 31.6749 31.5813 31.6002 31.5996C31.5256 31.6179 31.4592 31.6605 31.4115 31.7206C31.3639 31.7807 31.3377 31.8549 31.3372 31.9314V40.9568C31.3402 41.0423 31.3258 41.1276 31.2947 41.2073C31.2636 41.2871 31.2165 41.3597 31.1562 41.4208C31.0991 41.4789 31.0307 41.5248 30.9551 41.5556C30.8795 41.5865 30.7985 41.6017 30.7168 41.6003H28.0802Z" fill="white"/>
    <path d="M47.5429 41.6003C47.47 41.602 47.3976 41.5879 47.3307 41.5592C47.2638 41.5304 47.2039 41.4876 47.1551 41.4336C47.0566 41.3338 47.001 41.1997 47 41.0597C46.9995 40.9901 47.0065 40.9207 47.0207 40.8525C47.0242 40.8363 47.0289 40.8204 47.0349 40.8049L53.1741 24.2858C53.1768 24.28 53.1787 24.274 53.18 24.2678C53.2337 24.0817 53.3405 23.9151 53.4876 23.7884C53.6427 23.6506 53.8581 23.5818 54.1338 23.5818H57.4425C57.7182 23.5818 57.9337 23.6506 58.0887 23.7884C58.236 23.9149 58.3429 24.0816 58.3964 24.2678L58.4022 24.2858L64.5414 40.8043C64.5471 40.8203 64.5519 40.8366 64.5556 40.8532C64.5696 40.9211 64.5763 40.9904 64.5756 41.0597C64.5747 41.1997 64.5191 41.3338 64.4205 41.4336C64.3718 41.4876 64.3119 41.5304 64.245 41.5592C64.178 41.5879 64.1057 41.602 64.0328 41.6003H61.3445C61.086 41.6003 60.896 41.5405 60.7758 41.4208C60.6737 41.328 60.5941 41.2134 60.5431 41.0855L59.5169 38.4239C59.4919 38.3588 59.4476 38.3029 59.3899 38.2634C59.3322 38.224 59.2638 38.203 59.1938 38.2032H52.3819C52.3119 38.2031 52.2436 38.2241 52.1859 38.2635C52.1282 38.303 52.0838 38.3589 52.0587 38.4239L51.0325 41.0855C50.9813 41.2133 50.9018 41.3279 50.7999 41.4208C50.6792 41.5405 50.4897 41.6003 50.2312 41.6003H47.5429ZM53.5929 34.882H57.9608C58.016 34.8816 58.0703 34.868 58.1192 34.8425C58.168 34.8169 58.21 34.78 58.2417 34.735C58.2733 34.6899 58.2936 34.638 58.301 34.5835C58.3083 34.5291 58.3025 34.4736 58.2839 34.4219L56.11 28.3728C56.0858 28.3063 56.0416 28.2488 55.9834 28.2082C55.9253 28.1676 55.856 28.1458 55.7849 28.1458C55.7139 28.1458 55.6446 28.1676 55.5864 28.2082C55.5283 28.2488 55.4841 28.3063 55.4599 28.3728L53.2627 34.4219C53.2437 34.4742 53.2378 34.5303 53.2455 34.5854C53.2531 34.6405 53.2741 34.6929 53.3066 34.7382C53.339 34.7834 53.3821 34.8202 53.4319 34.8452C53.4818 34.8702 53.537 34.8829 53.5929 34.882Z" fill="white"/>
    <path d="M67.4467 41.6001C67.3608 41.604 67.275 41.59 67.1949 41.559C67.1147 41.528 67.0419 41.4807 66.9811 41.4202C66.9203 41.3597 66.8729 41.2872 66.8418 41.2074C66.8106 41.1276 66.7966 41.0422 66.8004 40.9566V24.2252C66.7967 24.1397 66.8108 24.0543 66.842 23.9745C66.8731 23.8948 66.9206 23.8223 66.9814 23.7618C67.0421 23.7013 67.1149 23.654 67.195 23.623C67.2751 23.592 67.3608 23.5779 67.4467 23.5816H74.2967C76.4509 23.5816 78.1483 24.075 79.3891 25.0617C80.6298 26.0485 81.2502 27.4687 81.2502 29.3225C81.2502 30.5748 80.9486 31.6213 80.3455 32.4622C79.8095 33.2089 79.0889 33.8052 78.2536 34.1933C78.211 34.2136 78.1731 34.2425 78.1421 34.278C78.1112 34.3136 78.0879 34.3551 78.0737 34.4C78.0595 34.4449 78.0548 34.4922 78.0597 34.539C78.0647 34.5858 78.0792 34.6311 78.1024 34.672L81.5604 40.7771C81.6079 40.864 81.6345 40.9607 81.638 41.0596C81.637 41.1996 81.5814 41.3336 81.4829 41.4335C81.4341 41.4874 81.3742 41.5303 81.3073 41.559C81.2404 41.5878 81.168 41.6018 81.0951 41.6001H78.2258C77.9157 41.6001 77.683 41.5189 77.5279 41.3563C77.3947 41.223 77.2815 41.0713 77.1919 40.9058L74.1358 35.1933C74.1065 35.1381 74.0626 35.0919 74.0088 35.0597C73.9551 35.0275 73.8935 35.0105 73.8308 35.0105H71.2562C71.1646 35.0107 71.0767 35.047 71.0119 35.1116C70.9471 35.1761 70.9106 35.2635 70.9105 35.3548V40.9534C70.9143 41.0389 70.9003 41.1243 70.8691 41.2041C70.838 41.284 70.7906 41.3564 70.7298 41.417C70.669 41.4775 70.5962 41.5248 70.516 41.5558C70.4359 41.5868 70.3501 41.6008 70.2642 41.5969L67.4467 41.6001ZM70.9105 31.3978C70.9106 31.489 70.9472 31.5764 71.012 31.6408C71.0768 31.7053 71.1646 31.7415 71.2562 31.7415H74.2192C75.167 31.7415 75.8692 31.5269 76.3259 31.0979C76.7826 30.6689 77.0109 30.0683 77.0109 29.2961C77.0109 28.5239 76.7869 27.9149 76.3388 27.4691C75.8908 27.0234 75.1842 26.8001 74.2192 26.7992H71.2562C71.1646 26.7994 71.0767 26.8357 71.0119 26.9003C70.9471 26.9648 70.9106 27.0523 70.9105 27.1435V31.3978Z" fill="white"/>
    <path d="M85.0756 41.6001C84.9897 41.604 84.9039 41.59 84.8238 41.559C84.7436 41.528 84.6708 41.4807 84.61 41.4202C84.5492 41.3596 84.5018 41.2872 84.4707 41.2073C84.4396 41.1275 84.4255 41.0421 84.4293 40.9566V24.2251C84.4256 24.1396 84.4397 24.0543 84.4709 23.9745C84.502 23.8947 84.5495 23.8223 84.6103 23.7618C84.671 23.7013 84.7438 23.654 84.8239 23.623C84.904 23.592 84.9897 23.5779 85.0756 23.5816H87.8156C87.9015 23.5779 87.9872 23.592 88.0673 23.623C88.1474 23.654 88.2201 23.7013 88.2809 23.7618C88.3417 23.8223 88.3892 23.8947 88.4203 23.9745C88.4515 24.0543 88.4656 24.1396 88.4618 24.2251V29.1802C88.4619 29.2501 88.4832 29.3184 88.5232 29.3759C88.5631 29.4334 88.6196 29.4774 88.6853 29.5021C88.7509 29.5269 88.8226 29.5311 88.8907 29.5143C88.9589 29.4975 89.0203 29.4604 89.0667 29.408L93.7842 24.0668C93.8794 23.9389 93.9978 23.8298 94.1332 23.7451C94.2965 23.6335 94.5162 23.5778 94.7924 23.5778H97.9202C97.9931 23.5762 98.0655 23.5904 98.1324 23.6192C98.1993 23.6481 98.2592 23.691 98.3079 23.7451C98.4064 23.8449 98.462 23.979 98.463 24.119C98.4654 24.2307 98.4289 24.3399 98.3596 24.4278L91.9043 31.9808C91.8521 32.0428 91.8234 32.1212 91.8234 32.2022C91.8234 32.2832 91.8521 32.3615 91.9043 32.4236L98.8533 40.7468C98.8902 40.7889 98.9184 40.8379 98.9361 40.8909C98.9539 40.944 98.9609 41 98.9567 41.0557C98.9558 41.1957 98.9001 41.3298 98.8016 41.4296C98.7529 41.4835 98.693 41.5264 98.6261 41.5551C98.5591 41.5839 98.4868 41.5979 98.4139 41.5963H95.1827C94.8725 41.5963 94.6399 41.5276 94.4848 41.3903C94.3387 41.2616 94.2386 41.1705 94.1843 41.1168C94.1772 41.1104 94.1713 41.104 94.1649 41.0969L89.0687 35.2184C89.0225 35.1654 88.9612 35.1278 88.893 35.1104C88.8247 35.0931 88.7528 35.097 88.6868 35.1215C88.6208 35.1459 88.564 35.1899 88.5237 35.2475C88.4835 35.305 88.4619 35.3735 88.4618 35.4436V40.9528C88.4657 41.0383 88.4516 41.1237 88.4205 41.2035C88.3894 41.2833 88.3419 41.3558 88.2811 41.4163C88.2203 41.4769 88.1476 41.5241 88.0674 41.5551C87.9873 41.5861 87.9015 41.6001 87.8156 41.5963L85.0756 41.6001Z" fill="white"/>
    <path d="M101.801 41.6001C101.715 41.604 101.63 41.59 101.549 41.559C101.469 41.528 101.396 41.4807 101.336 41.4202C101.275 41.3597 101.227 41.2872 101.196 41.2074C101.165 41.1276 101.151 41.0422 101.155 40.9566V24.2252C101.151 24.1397 101.165 24.0543 101.196 23.9745C101.228 23.8948 101.275 23.8223 101.336 23.7618C101.397 23.7013 101.469 23.654 101.549 23.623C101.63 23.592 101.715 23.5779 101.801 23.5816H113.511C113.597 23.5779 113.683 23.592 113.763 23.623C113.843 23.654 113.915 23.7013 113.976 23.7618C114.037 23.8223 114.085 23.8948 114.116 23.9745C114.147 24.0543 114.161 24.1397 114.157 24.2252V26.2844C114.159 26.3658 114.143 26.4466 114.112 26.5218C114.081 26.5971 114.035 26.6652 113.976 26.722C113.915 26.7821 113.842 26.829 113.762 26.86C113.682 26.891 113.597 26.9054 113.511 26.9022H105.481C105.39 26.9024 105.302 26.9387 105.237 27.0032C105.172 27.0678 105.136 27.1552 105.136 27.2465V30.5999C105.136 30.6911 105.172 30.7786 105.237 30.8431C105.302 30.9076 105.39 30.944 105.481 30.9441H112.942C113.028 30.9404 113.114 30.9545 113.194 30.9855C113.274 31.0165 113.347 31.0638 113.408 31.1243C113.468 31.1848 113.516 31.2573 113.547 31.337C113.578 31.4168 113.592 31.5021 113.589 31.5877V33.4918C113.59 33.5732 113.575 33.654 113.543 33.7292C113.512 33.8045 113.466 33.8726 113.408 33.9294C113.346 33.9895 113.274 34.0364 113.194 34.0674C113.114 34.0984 113.028 34.1128 112.942 34.1096H105.481C105.39 34.1098 105.302 34.1461 105.237 34.2106C105.172 34.2752 105.136 34.3626 105.136 34.4539V37.936C105.136 38.0272 105.172 38.1147 105.237 38.1792C105.302 38.2437 105.39 38.2801 105.481 38.2802H113.718C113.804 38.2765 113.889 38.2906 113.969 38.3216C114.05 38.3526 114.122 38.3999 114.183 38.4604C114.244 38.5209 114.291 38.5934 114.322 38.6731C114.354 38.7529 114.368 38.8383 114.364 38.9238V40.9566C114.368 41.0422 114.354 41.1276 114.323 41.2074C114.292 41.2872 114.244 41.3597 114.183 41.4202C114.122 41.4807 114.05 41.528 113.97 41.559C113.889 41.59 113.804 41.604 113.718 41.6001H101.801Z" fill="white"/>
    <path d="M122.066 41.6004C121.98 41.6042 121.895 41.5902 121.815 41.5592C121.734 41.5282 121.662 41.481 121.601 41.4204C121.54 41.3599 121.493 41.2874 121.461 41.2076C121.43 41.1278 121.416 41.0424 121.42 40.9568V27.5073C121.42 27.4161 121.383 27.3286 121.319 27.2641C121.254 27.1995 121.166 27.1632 121.074 27.163H116.716C116.634 27.1634 116.553 27.1476 116.478 27.1167C116.402 27.0858 116.334 27.0403 116.276 26.9828C116.218 26.9254 116.173 26.8572 116.142 26.7821C116.111 26.707 116.095 26.6265 116.095 26.5452V24.2286C116.092 24.1431 116.106 24.058 116.138 23.9783C116.169 23.8986 116.216 23.8261 116.276 23.7652C116.333 23.707 116.402 23.6609 116.477 23.6299C116.553 23.5989 116.634 23.5837 116.716 23.5851H130.261C130.346 23.5813 130.432 23.5954 130.512 23.6264C130.592 23.6574 130.665 23.7047 130.726 23.7652C130.787 23.8257 130.834 23.8982 130.865 23.978C130.896 24.0577 130.911 24.1431 130.907 24.2286V26.5452C130.908 26.6266 130.893 26.7074 130.862 26.7827C130.831 26.8579 130.784 26.926 130.726 26.9828C130.665 27.0429 130.592 27.0898 130.512 27.1208C130.432 27.1518 130.346 27.1662 130.261 27.163H125.931C125.839 27.163 125.751 27.1993 125.686 27.2639C125.622 27.3284 125.585 27.416 125.585 27.5073V40.9568C125.589 41.0424 125.575 41.1278 125.544 41.2076C125.513 41.2874 125.465 41.3599 125.404 41.4204C125.344 41.481 125.271 41.5282 125.191 41.5592C125.111 41.5902 125.025 41.6042 124.939 41.6004H122.066Z" fill="white"/>
    <path d="M17.2862 14.3635H14.8886C14.4264 14.3635 14.0518 14.7366 14.0518 15.1969V17.5843C14.0518 18.0446 14.4264 18.4177 14.8886 18.4177H17.2862C17.7484 18.4177 18.123 18.0446 18.123 17.5843V15.1969C18.123 14.7366 17.7484 14.3635 17.2862 14.3635Z" fill="white"/>
    <path d="M17.2862 7.38135H14.8886C14.4264 7.38135 14.0518 7.75445 14.0518 8.2147V10.6022C14.0518 11.0624 14.4264 11.4355 14.8886 11.4355H17.2862C17.7484 11.4355 18.123 11.0624 18.123 10.6022V8.2147C18.123 7.75445 17.7484 7.38135 17.2862 7.38135Z" fill="white"/>
    <path d="M24.2657 37.5305H21.8681C21.4059 37.5305 21.0312 37.9036 21.0312 38.3639V40.7513C21.0312 41.2116 21.4059 41.5847 21.8681 41.5847H24.2657C24.7278 41.5847 25.1025 41.2116 25.1025 40.7513V38.3639C25.1025 37.9036 24.7278 37.5305 24.2657 37.5305Z" fill="white"/>
    <path d="M24.2657 30.5479H21.8681C21.4059 30.5479 21.0312 30.921 21.0312 31.3812V33.7687C21.0312 34.2289 21.4059 34.602 21.8681 34.602H24.2657C24.7278 34.602 25.1025 34.2289 25.1025 33.7687V31.3812C25.1025 30.921 24.7278 30.5479 24.2657 30.5479Z" fill="white"/>
    <path d="M24.2657 23.5659H21.8681C21.4059 23.5659 21.0312 23.939 21.0312 24.3993V26.7867C21.0312 27.247 21.4059 27.6201 21.8681 27.6201H24.2657C24.7278 27.6201 25.1025 27.247 25.1025 26.7867V24.3993C25.1025 23.939 24.7278 23.5659 24.2657 23.5659Z" fill="white"/>
    <path d="M17.2862 23.5659H14.8886C14.4264 23.5659 14.0518 23.939 14.0518 24.3993V26.7867C14.0518 27.247 14.4264 27.6201 14.8886 27.6201H17.2862C17.7484 27.6201 18.123 27.247 18.123 26.7867V24.3993C18.123 23.939 17.7484 23.5659 17.2862 23.5659Z" fill="white"/>
    <path d="M10.3067 23.5659H7.90914C7.44695 23.5659 7.07227 23.939 7.07227 24.3993V26.7867C7.07227 27.247 7.44695 27.6201 7.90914 27.6201H10.3067C10.7689 27.6201 11.1435 27.247 11.1435 26.7867V24.3993C11.1435 23.939 10.7689 23.5659 10.3067 23.5659Z" fill="white"/>
    <path d="M3.32718 23.5659H0.929647C0.467454 23.5659 0.0927734 23.939 0.0927734 24.3993V26.7867C0.0927734 27.247 0.467454 27.6201 0.929647 27.6201H3.32718C3.78937 27.6201 4.16405 27.247 4.16405 26.7867V24.3993C4.16405 23.939 3.78937 23.5659 3.32718 23.5659Z" fill="white"/>
    <path d="M18.1221 33.8011V31.4137C18.1221 30.9534 17.7474 30.5803 17.2852 30.5803H14.8877C14.4255 30.5803 14.0508 30.9534 14.0508 31.4137V33.8011C14.0508 34.2614 14.4255 34.6345 14.8877 34.6345H17.2852C17.7474 34.6345 18.1221 34.2614 18.1221 33.8011Z" fill="white"/>
    <path d="M14.0195 9.40137H18.0908C17.6007 9.88934 17.212 10.4687 16.9467 11.1063C16.6815 11.7439 16.545 12.4272 16.545 13.1174C16.545 13.8075 16.6815 14.4909 16.9467 15.1285C17.212 15.7661 17.6007 16.3454 18.0908 16.8334H14.0195C14.5096 16.3454 14.8984 15.7661 15.1636 15.1285C15.4288 14.4909 15.5653 13.8075 15.5653 13.1174C15.5653 12.4272 15.4288 11.7439 15.1636 11.1063C14.8984 10.4687 14.5096 9.88934 14.0195 9.40137Z" fill="white"/>
    <path d="M14.0195 25.3606H18.0908C17.6007 25.8486 17.212 26.4279 16.9467 27.0655C16.6815 27.7031 16.545 28.3865 16.545 29.0766C16.545 29.7667 16.6815 30.4501 16.9467 31.0877C17.212 31.7253 17.6007 32.3046 18.0908 32.7926H14.0195C14.5096 32.3046 14.8984 31.7253 15.1636 31.0877C15.4288 30.4501 15.5653 29.7667 15.5653 29.0766C15.5653 28.3865 15.4288 27.7031 15.1636 27.0655C14.8984 26.4279 14.5096 25.8486 14.0195 25.3606Z" fill="white"/>
    <path d="M16.296 23.5747V27.6289C15.8059 27.1408 15.2241 26.7537 14.5838 26.4896C13.9434 26.2254 13.2571 26.0895 12.564 26.0895C11.8709 26.0895 11.1846 26.2254 10.5443 26.4896C9.90395 26.7537 9.32212 27.1408 8.83203 27.6289V23.5747C9.82206 24.5599 11.1644 25.1133 12.564 25.1133C13.9637 25.1133 15.306 24.5599 16.296 23.5747Z" fill="white"/>
    <path d="M23.341 30.5247V34.5788C22.8509 34.0908 22.269 33.7036 21.6287 33.4395C20.9884 33.1754 20.3021 33.0395 19.609 33.0395C18.9159 33.0395 18.2295 33.1754 17.5892 33.4395C16.9489 33.7036 16.367 34.0908 15.877 34.5788V30.5247C16.867 31.5098 18.2093 32.0632 19.609 32.0632C21.0086 32.0632 22.3509 31.5098 23.341 30.5247Z" fill="white"/>
    <path d="M23.961 14.3635H21.5634C21.1012 14.3635 20.7266 14.7366 20.7266 15.1969V17.5843C20.7266 18.0446 21.1012 18.4177 21.5634 18.4177H23.961C24.4232 18.4177 24.7978 18.0446 24.7978 17.5843V15.1969C24.7978 14.7366 24.4232 14.3635 23.961 14.3635Z" fill="white"/>
    <path d="M23.961 7.38135H21.5634C21.1012 7.38135 20.7266 7.75445 20.7266 8.2147V10.6022C20.7266 11.0624 21.1012 11.4355 21.5634 11.4355H23.961C24.4232 11.4355 24.7978 11.0624 24.7978 10.6022V8.2147C24.7978 7.75445 24.4232 7.38135 23.961 7.38135Z" fill="white"/>
    <path d="M23.961 0.39917H21.5634C21.1012 0.39917 20.7266 0.772276 20.7266 1.23253V3.61998C20.7266 4.08023 21.1012 4.45333 21.5634 4.45333H23.961C24.4232 4.45333 24.7978 4.08023 24.7978 3.61998V1.23253C24.7978 0.772276 24.4232 0.39917 23.961 0.39917Z" fill="white"/>
    <path d="M20.6934 2.2583H24.7646C24.2746 2.74628 23.8858 3.3256 23.6206 3.96319C23.3553 4.60079 23.2188 5.28416 23.2188 5.9743C23.2188 6.66443 23.3553 7.3478 23.6206 7.9854C23.8858 8.62299 24.2746 9.20231 24.7646 9.69029H20.6934C21.1834 9.20231 21.5722 8.62299 21.8374 7.9854C22.1027 7.3478 22.2392 6.66443 22.2392 5.9743C22.2392 5.28416 22.1027 4.60079 21.8374 3.96319C21.5722 3.3256 21.1834 2.74628 20.6934 2.2583Z" fill="white"/>
    <path d="M20.6934 9.40137H24.7646C24.2746 9.88934 23.8858 10.4687 23.6206 11.1063C23.3553 11.7439 23.2188 12.4272 23.2188 13.1174C23.2188 13.8075 23.3553 14.4909 23.6206 15.1285C23.8858 15.7661 24.2746 16.3454 24.7646 16.8334H20.6934C21.1834 16.3454 21.5722 15.7661 21.8374 15.1285C22.1027 14.4909 22.2392 13.8075 22.2392 13.1174C22.2392 12.4272 22.1027 11.7439 21.8374 11.1063C21.5722 10.4687 21.1834 9.88934 20.6934 9.40137Z" fill="white"/>
    <path d="M10.3067 14.3635H7.90914C7.44695 14.3635 7.07227 14.7366 7.07227 15.1969V17.5843C7.07227 18.0446 7.44695 18.4177 7.90914 18.4177H10.3067C10.7689 18.4177 11.1435 18.0446 11.1435 17.5843V15.1969C11.1435 14.7366 10.7689 14.3635 10.3067 14.3635Z" fill="white"/>
    <path d="M3.32718 14.3635H0.929647C0.467454 14.3635 0.0927734 14.7366 0.0927734 15.1969V17.5843C0.0927734 18.0446 0.467454 18.4177 0.929647 18.4177H3.32718C3.78937 18.4177 4.16405 18.0446 4.16405 17.5843V15.1969C4.16405 14.7366 3.78937 14.3635 3.32718 14.3635Z" fill="white"/>
    <path d="M16.0859 18.4175V14.3462C16.5739 14.8363 17.1532 15.225 17.7908 15.4903C18.4284 15.7555 19.1118 15.892 19.8019 15.892C20.4921 15.892 21.1754 15.7555 21.813 15.4903C22.4506 15.225 23.03 14.8363 23.5179 14.3462V18.4175C23.03 17.9274 22.4506 17.5386 21.813 17.2734C21.1754 17.0082 20.4921 16.8717 19.8019 16.8717C19.1118 16.8717 18.4284 17.0082 17.7908 17.2734C17.1532 17.5386 16.5739 17.9274 16.0859 18.4175Z" fill="white"/>
    <path d="M8.62305 18.4587V14.3875C9.11102 14.8775 9.69035 15.2663 10.3279 15.5315C10.9655 15.7968 11.6489 15.9333 12.339 15.9333C13.0292 15.9333 13.7126 15.7968 14.3501 15.5315C14.9877 15.2663 15.5671 14.8775 16.055 14.3875V18.4587C15.5671 17.9687 14.9877 17.5799 14.3501 17.3147C13.7126 17.0494 13.0292 16.9129 12.339 16.9129C11.6489 16.9129 10.9655 17.0494 10.3279 17.3147C9.69035 17.5799 9.11102 17.9687 8.62305 18.4587Z" fill="white"/>
    <path d="M1.85352 18.4175L1.85352 14.3462C2.34149 14.8363 2.92082 15.225 3.55841 15.4903C4.196 15.7555 4.87938 15.892 5.56951 15.892C6.25964 15.892 6.94302 15.7555 7.58061 15.4903C8.21821 15.225 8.79753 14.8363 9.28551 14.3462V18.4175C8.79753 17.9274 8.21821 17.5386 7.58061 17.2734C6.94302 17.0082 6.25964 16.8717 5.56951 16.8717C4.87938 16.8717 4.196 17.0082 3.55841 17.2734C2.92082 17.5386 2.34149 17.9274 1.85352 18.4175Z" fill="white"/>
</svg>
