<svg width="91" height="29" viewBox="0 0 91 29" fill="none" xmlns="http://www.w3.org/2000/svg">
    <path d="M19.8476 12.7409C19.7887 12.7435 19.7299 12.7339 19.675 12.7127C19.6201 12.6915 19.5702 12.6591 19.5285 12.6176C19.4868 12.5761 19.4543 12.5264 19.4329 12.4717C19.4116 12.4169 19.402 12.3584 19.4046 12.2998V0.830158C19.4024 0.77159 19.4123 0.7132 19.4336 0.658578C19.455 0.603956 19.4873 0.554257 19.5286 0.512538C19.5706 0.471397 19.6205 0.439219 19.6753 0.417978C19.7302 0.396738 19.7888 0.386883 19.8476 0.389019H27.7508C27.8096 0.386961 27.8682 0.396852 27.923 0.418088C27.9778 0.439324 28.0278 0.471461 28.0697 0.512538C28.111 0.554318 28.1432 0.604027 28.1646 0.658635C28.1859 0.713242 28.1958 0.771603 28.1938 0.830158V2.33003C28.1964 2.38866 28.1867 2.4472 28.1654 2.50191C28.1441 2.55662 28.1116 2.60631 28.0699 2.64781C28.0282 2.68931 27.9783 2.72172 27.9234 2.74295C27.8684 2.76419 27.8096 2.7738 27.7508 2.77117H22.4059C22.3431 2.77117 22.2828 2.79603 22.2383 2.84029C22.1939 2.88456 22.1689 2.94459 22.1689 3.00718V5.5177C22.1689 5.54867 22.1751 5.57934 22.187 5.60795C22.1989 5.63656 22.2164 5.66255 22.2384 5.68443C22.2604 5.70631 22.2865 5.72365 22.3153 5.73546C22.344 5.74728 22.3748 5.75333 22.4059 5.75327H27.3964C27.4552 5.75084 27.5139 5.76059 27.5687 5.7819C27.6236 5.80321 27.6734 5.83561 27.715 5.87707C27.7567 5.91853 27.7892 5.96814 27.8106 6.02276C27.832 6.07738 27.8418 6.13583 27.8394 6.19441V7.69428C27.8403 7.75012 27.8298 7.80556 27.8084 7.85722C27.7871 7.90887 27.7554 7.95565 27.7153 7.9947C27.6734 8.03577 27.6234 8.06791 27.5686 8.08915C27.5138 8.11038 27.4552 8.12027 27.3964 8.11822H22.4059C22.3748 8.11816 22.344 8.12421 22.3153 8.13602C22.2865 8.14783 22.2604 8.16517 22.2384 8.18706C22.2164 8.20894 22.1989 8.23492 22.187 8.26353C22.1751 8.29214 22.1689 8.32281 22.1689 8.35378V12.2998C22.1716 12.3584 22.1619 12.4169 22.1406 12.4717C22.1193 12.5264 22.0867 12.5761 22.0451 12.6176C22.0034 12.6591 21.9535 12.6915 21.8985 12.7127C21.8436 12.7339 21.7848 12.7435 21.7259 12.7409H19.8476Z" fill="white"/>
    <path d="M30.6391 12.7409C30.5802 12.7435 30.5214 12.7339 30.4665 12.7127C30.4116 12.6915 30.3617 12.6591 30.32 12.6176C30.2783 12.5761 30.2458 12.5264 30.2244 12.4717C30.2031 12.4169 30.1935 12.3584 30.1961 12.2998V0.830158C30.1939 0.77159 30.2038 0.7132 30.2252 0.658578C30.2465 0.603956 30.2788 0.554257 30.3201 0.512538C30.3621 0.471397 30.412 0.439219 30.4668 0.417978C30.5217 0.396738 30.5803 0.386883 30.6391 0.389019H32.6415C32.7003 0.386961 32.7589 0.396852 32.8137 0.418088C32.8686 0.439324 32.9185 0.471461 32.9604 0.512538C33.0017 0.554318 33.034 0.604027 33.0553 0.658635C33.0766 0.713242 33.0865 0.771603 33.0845 0.830158V12.2998C33.0871 12.3584 33.0775 12.4169 33.0561 12.4717C33.0348 12.5264 33.0023 12.5761 32.9606 12.6176C32.9189 12.6591 32.869 12.6915 32.8141 12.7127C32.7591 12.7339 32.7003 12.7435 32.6415 12.7409H30.6391Z" fill="white"/>
    <path d="M36.1496 12.7409C36.0907 12.7435 36.0319 12.7339 35.977 12.7127C35.9221 12.6915 35.8722 12.6591 35.8305 12.6176C35.7888 12.5761 35.7563 12.5264 35.7349 12.4717C35.7136 12.4169 35.704 12.3584 35.7066 12.2998V0.830158C35.7044 0.77159 35.7143 0.7132 35.7356 0.658578C35.757 0.603956 35.7893 0.554257 35.8306 0.512538C35.8726 0.471397 35.9225 0.439219 35.9773 0.417978C36.0322 0.396738 36.0908 0.386883 36.1496 0.389019H37.7621C37.9393 0.389019 38.0691 0.430486 38.152 0.512538C38.2141 0.569583 38.2678 0.635078 38.3114 0.70708L42.6063 7.38636C42.634 7.42924 42.6749 7.46204 42.7229 7.47985C42.7708 7.49766 42.8233 7.49953 42.8724 7.48518C42.9215 7.47083 42.9647 7.44103 42.9954 7.40024C43.0261 7.35944 43.0427 7.30985 43.0427 7.25888V0.830158C43.0405 0.77159 43.0504 0.7132 43.0717 0.658578C43.0931 0.603956 43.1254 0.554257 43.1667 0.512538C43.2058 0.472575 43.2527 0.441002 43.3045 0.41976C43.3563 0.398517 43.412 0.388056 43.468 0.389019H45.2754C45.3342 0.386961 45.3928 0.396852 45.4477 0.418088C45.5025 0.439324 45.5524 0.471461 45.5944 0.512538C45.6356 0.554318 45.6679 0.604027 45.6892 0.658635C45.7106 0.713242 45.7205 0.771603 45.7184 0.830158V12.2998C45.7191 12.4149 45.6746 12.5257 45.5944 12.6086C45.5538 12.652 45.5043 12.6863 45.4493 12.7092C45.3943 12.732 45.335 12.7428 45.2754 12.7409H43.6452C43.468 12.7409 43.341 12.6968 43.2642 12.6086C43.1969 12.5315 43.1455 12.4746 43.11 12.4378C43.0999 12.4272 43.0907 12.4157 43.0826 12.4034L38.8174 5.95222C38.7892 5.9096 38.748 5.8772 38.6998 5.85988C38.6516 5.84257 38.5991 5.84126 38.5501 5.85617C38.5011 5.87107 38.4583 5.90138 38.428 5.94256C38.3978 5.98373 38.3817 6.03356 38.3823 6.08456V12.2998C38.385 12.3584 38.3753 12.4169 38.354 12.4717C38.3327 12.5264 38.3001 12.5761 38.2585 12.6176C38.2168 12.6591 38.1669 12.6915 38.1119 12.7127C38.057 12.7339 37.9982 12.7435 37.9393 12.7409H36.1496Z" fill="white"/>
    <path d="M19.8476 28.6218C19.7321 28.6226 19.6208 28.5785 19.5375 28.4988C19.4938 28.4583 19.4594 28.409 19.4364 28.3541C19.4135 28.2992 19.4027 28.2401 19.4046 28.1807V16.7111C19.4027 16.6518 19.4136 16.5927 19.4365 16.5379C19.4595 16.4831 19.4939 16.4339 19.5375 16.3935C19.6208 16.3136 19.7321 16.2693 19.8476 16.2699H21.4956C21.6728 16.2699 21.8057 16.3172 21.8943 16.4116C21.9741 16.4963 22.0321 16.5615 22.0689 16.6083C22.0768 16.6182 22.0838 16.6288 22.0897 16.6401L25.1335 22.2249C25.1539 22.2621 25.184 22.2931 25.2206 22.3147C25.2572 22.3363 25.299 22.3477 25.3415 22.3477C25.3841 22.3477 25.4258 22.3363 25.4624 22.3147C25.499 22.2931 25.5291 22.2621 25.5495 22.2249L28.6368 16.6224C28.6838 16.5453 28.7404 16.4743 28.8051 16.4111C28.8937 16.3167 29.0266 16.2695 29.2038 16.2695H30.8518C30.9107 16.2669 30.9694 16.2766 31.0243 16.2979C31.0792 16.3191 31.1291 16.3515 31.1708 16.393C31.2124 16.4345 31.245 16.4842 31.2663 16.5388C31.2877 16.5935 31.2974 16.652 31.2948 16.7106V28.1803C31.2974 28.2389 31.2878 28.2974 31.2665 28.3521C31.2451 28.4069 31.2126 28.4565 31.1709 28.498C31.1293 28.5395 31.0794 28.5719 31.0244 28.5932C30.9695 28.6144 30.9107 28.624 30.8518 28.6214H29.0444C28.9884 28.6224 28.9328 28.6121 28.8809 28.5909C28.8291 28.5697 28.7822 28.5382 28.7431 28.4983C28.7017 28.4565 28.6694 28.4068 28.6481 28.3521C28.6267 28.2974 28.6169 28.2389 28.6191 28.1803V21.9937C28.6187 21.9412 28.6008 21.8904 28.5681 21.8492C28.5354 21.808 28.4899 21.7788 28.4388 21.7663C28.3876 21.7537 28.3337 21.7585 28.2855 21.7799C28.2374 21.8013 28.1978 21.838 28.173 21.8843L26.3686 25.2515C26.3088 25.3582 26.2308 25.4537 26.1383 25.5339C26.0339 25.6196 25.9013 25.6636 25.7661 25.6574H24.9333C24.7981 25.6638 24.6655 25.6197 24.5612 25.5339C24.4683 25.454 24.3904 25.3584 24.3308 25.2515L22.5265 21.8843C22.5017 21.838 22.4621 21.8013 22.4139 21.7799C22.3658 21.7585 22.3119 21.7537 22.2607 21.7663C22.2095 21.7788 22.164 21.808 22.1313 21.8492C22.0987 21.8904 22.0808 21.9412 22.0804 21.9937V28.1807C22.0825 28.2393 22.0726 28.2978 22.0512 28.3524C22.0299 28.4071 21.9976 28.4569 21.9563 28.4988C21.9172 28.5386 21.8703 28.5701 21.8185 28.5912C21.7667 28.6124 21.7111 28.6228 21.6551 28.6218H19.8476Z" fill="white"/>
    <path d="M33.1903 28.6219C33.1403 28.623 33.0907 28.6134 33.0448 28.5937C32.9989 28.5739 32.9579 28.5446 32.9245 28.5076C32.8569 28.4392 32.8188 28.3472 32.8181 28.2513C32.8178 28.2036 32.8225 28.156 32.8323 28.1093C32.8347 28.0981 32.8379 28.0872 32.8421 28.0766L37.0506 16.7526C37.0524 16.7486 37.0537 16.7445 37.0545 16.7402C37.0914 16.6126 37.1646 16.4985 37.2654 16.4116C37.3717 16.3172 37.5194 16.27 37.7084 16.27H39.9766C40.1656 16.27 40.3133 16.3172 40.4196 16.4116C40.5205 16.4983 40.5938 16.6126 40.6304 16.7402L40.6344 16.7526L44.8429 28.0762C44.8469 28.0871 44.8501 28.0983 44.8527 28.1097C44.8623 28.1563 44.8669 28.2037 44.8664 28.2513C44.8658 28.3472 44.8276 28.4392 44.7601 28.5076C44.7267 28.5446 44.6856 28.5739 44.6397 28.5937C44.5939 28.6134 44.5443 28.623 44.4943 28.6219H42.6514C42.4742 28.6219 42.344 28.5808 42.2616 28.4988C42.1916 28.4352 42.137 28.3566 42.1021 28.2689L41.3986 26.4444C41.3815 26.3998 41.3511 26.3614 41.3115 26.3344C41.272 26.3074 41.2251 26.293 41.1771 26.2931H36.5074C36.4595 26.293 36.4126 26.3075 36.3731 26.3345C36.3335 26.3615 36.3032 26.3998 36.2859 26.4444L35.5825 28.2689C35.5473 28.3565 35.4928 28.4351 35.423 28.4988C35.3403 28.5808 35.2103 28.6219 35.0331 28.6219H33.1903ZM37.3376 24.0164H40.3319C40.3697 24.0161 40.4069 24.0068 40.4404 23.9893C40.4739 23.9718 40.5027 23.9465 40.5244 23.9156C40.5461 23.8847 40.56 23.8491 40.5651 23.8118C40.5701 23.7744 40.5661 23.7364 40.5534 23.7009L39.0631 19.5542C39.0465 19.5086 39.0162 19.4693 38.9764 19.4414C38.9365 19.4136 38.889 19.3986 38.8403 19.3986C38.7916 19.3986 38.7441 19.4136 38.7042 19.4414C38.6643 19.4693 38.634 19.5086 38.6175 19.5542L37.1113 23.7009C37.0983 23.7368 37.0942 23.7753 37.0995 23.8131C37.1047 23.8508 37.1191 23.8868 37.1413 23.9178C37.1636 23.9488 37.1931 23.974 37.2273 23.9912C37.2615 24.0083 37.2993 24.017 37.3376 24.0164Z" fill="white"/>
    <path d="M46.8349 28.6218C46.776 28.6245 46.7172 28.6148 46.6623 28.5936C46.6074 28.5724 46.5575 28.54 46.5158 28.4985C46.4741 28.457 46.4416 28.4073 46.4202 28.3526C46.3989 28.2979 46.3893 28.2393 46.3919 28.1807V16.7111C46.3893 16.6525 46.399 16.594 46.4204 16.5393C46.4417 16.4846 46.4743 16.4349 46.5159 16.3934C46.5576 16.352 46.6075 16.3196 46.6624 16.2983C46.7173 16.277 46.776 16.2674 46.8349 16.2699H51.5307C53.0074 16.2699 54.171 16.6081 55.0216 17.2846C55.8721 17.961 56.2974 18.9346 56.2974 20.2053C56.2974 21.0638 56.0907 21.7812 55.6772 22.3577C55.3098 22.8695 54.8158 23.2783 54.2432 23.5443C54.214 23.5583 54.188 23.578 54.1668 23.6024C54.1456 23.6268 54.1296 23.6553 54.1199 23.686C54.1102 23.7168 54.1069 23.7492 54.1103 23.7813C54.1137 23.8134 54.1236 23.8444 54.1396 23.8725L56.51 28.0576C56.5426 28.1172 56.5608 28.1835 56.5632 28.2513C56.5626 28.3472 56.5244 28.4391 56.4569 28.5076C56.4235 28.5446 56.3824 28.5739 56.3365 28.5936C56.2907 28.6134 56.241 28.623 56.1911 28.6218H54.2242C54.0115 28.6218 53.852 28.5661 53.7457 28.4546C53.6544 28.3633 53.5768 28.2593 53.5154 28.1458L51.4204 24.2298C51.4003 24.192 51.3702 24.1604 51.3333 24.1383C51.2965 24.1162 51.2543 24.1046 51.2113 24.1046H49.4464C49.3836 24.1047 49.3234 24.1296 49.2789 24.1738C49.2345 24.2181 49.2095 24.278 49.2094 24.3406V28.1785C49.212 28.2371 49.2024 28.2957 49.1811 28.3504C49.1597 28.4051 49.1272 28.4548 49.0855 28.4963C49.0438 28.5378 48.9939 28.5702 48.939 28.5914C48.8841 28.6126 48.8253 28.6223 48.7664 28.6196L46.8349 28.6218ZM49.2094 21.628C49.2095 21.6905 49.2345 21.7504 49.279 21.7946C49.3234 21.8388 49.3836 21.8636 49.4464 21.8636H51.4776C52.1273 21.8636 52.6087 21.7165 52.9217 21.4224C53.2348 21.1283 53.3913 20.7166 53.3913 20.1872C53.3913 19.6579 53.2377 19.2404 52.9306 18.9349C52.6235 18.6293 52.1391 18.4762 51.4776 18.4756H49.4464C49.3836 18.4757 49.3234 18.5006 49.2789 18.5449C49.2345 18.5891 49.2095 18.6491 49.2094 18.7116V21.628Z" fill="white"/>
    <path d="M58.9199 28.6218C58.861 28.6245 58.8022 28.6149 58.7473 28.5936C58.6923 28.5724 58.6424 28.54 58.6007 28.4985C58.5591 28.457 58.5265 28.4073 58.5052 28.3526C58.4839 28.2979 58.4742 28.2393 58.4769 28.1807V16.7111C58.4743 16.6525 58.484 16.594 58.5053 16.5393C58.5267 16.4846 58.5592 16.4349 58.6009 16.3934C58.6426 16.352 58.6924 16.3196 58.7473 16.2983C58.8022 16.277 58.861 16.2674 58.9199 16.2699H60.7982C60.8571 16.2674 60.9158 16.277 60.9707 16.2983C61.0256 16.3196 61.0755 16.352 61.1172 16.3934C61.1588 16.4349 61.1914 16.4846 61.2127 16.5393C61.2341 16.594 61.2438 16.6525 61.2412 16.7111V20.1078C61.2412 20.1558 61.2559 20.2025 61.2832 20.242C61.3106 20.2814 61.3494 20.3116 61.3944 20.3285C61.4394 20.3455 61.4885 20.3484 61.5352 20.3369C61.5819 20.3253 61.624 20.2999 61.6558 20.264L64.8898 16.6026C64.955 16.5148 65.0362 16.44 65.129 16.382C65.2409 16.3055 65.3915 16.2673 65.5809 16.2673H67.725C67.775 16.2662 67.8246 16.2759 67.8705 16.2957C67.9163 16.3155 67.9574 16.3449 67.9908 16.382C68.0583 16.4504 68.0965 16.5423 68.0971 16.6383C68.0988 16.7149 68.0737 16.7897 68.0262 16.85L63.6011 22.0277C63.5652 22.0702 63.5456 22.1239 63.5456 22.1794C63.5456 22.2349 63.5652 22.2887 63.6011 22.3312L68.3647 28.0369C68.39 28.0658 68.4093 28.0993 68.4214 28.1357C68.4336 28.172 68.4384 28.2104 68.4356 28.2486C68.4349 28.3446 68.3968 28.4365 68.3292 28.5049C68.2958 28.5419 68.2548 28.5713 68.2089 28.591C68.163 28.6107 68.1134 28.6203 68.0634 28.6192H65.8484C65.6358 28.6192 65.4763 28.5721 65.37 28.478C65.2699 28.3898 65.2012 28.3273 65.164 28.2905C65.1591 28.2861 65.1551 28.2817 65.1507 28.2769L61.6572 24.2471C61.6255 24.2108 61.5835 24.1849 61.5367 24.1731C61.49 24.1612 61.4407 24.1638 61.3954 24.1806C61.3502 24.1974 61.3112 24.2276 61.2836 24.267C61.2561 24.3065 61.2413 24.3534 61.2412 24.4015V28.1781C61.2438 28.2367 61.2342 28.2952 61.2129 28.3499C61.1915 28.4046 61.159 28.4543 61.1173 28.4958C61.0756 28.5373 61.0257 28.5697 60.9708 28.591C60.9159 28.6122 60.8571 28.6218 60.7982 28.6192L58.9199 28.6218Z" fill="white"/>
    <path d="M70.3843 28.6218C70.3255 28.6245 70.2667 28.6148 70.2117 28.5936C70.1568 28.5724 70.1069 28.54 70.0652 28.4985C70.0235 28.457 69.991 28.4073 69.9697 28.3526C69.9484 28.2979 69.9387 28.2393 69.9413 28.1807V16.7111C69.9388 16.6525 69.9485 16.594 69.9698 16.5393C69.9912 16.4846 70.0237 16.4349 70.0654 16.3934C70.107 16.352 70.1569 16.3196 70.2118 16.2983C70.2667 16.277 70.3255 16.2674 70.3843 16.2699H78.4116C78.4704 16.2674 78.5292 16.277 78.5841 16.2983C78.639 16.3196 78.6889 16.352 78.7305 16.3934C78.7722 16.4349 78.8047 16.4846 78.8261 16.5393C78.8474 16.594 78.8571 16.6525 78.8546 16.7111V18.1227C78.8555 18.1785 78.845 18.2339 78.8237 18.2855C78.8023 18.3371 78.7706 18.3838 78.7305 18.4227C78.6886 18.4639 78.6387 18.496 78.5839 18.5173C78.529 18.5385 78.4704 18.5484 78.4116 18.5462H72.9072C72.8444 18.5463 72.7842 18.5712 72.7398 18.6155C72.6954 18.6597 72.6704 18.7197 72.6702 18.7822V21.081C72.6704 21.1436 72.6954 21.2035 72.7398 21.2478C72.7842 21.292 72.8444 21.3169 72.9072 21.317H78.0217C78.0806 21.3144 78.1393 21.3241 78.1942 21.3454C78.2491 21.3666 78.299 21.399 78.3407 21.4405C78.3823 21.482 78.4149 21.5317 78.4362 21.5863C78.4576 21.641 78.4673 21.6995 78.4647 21.7581V23.0635C78.4657 23.1193 78.4552 23.1746 78.4338 23.2262C78.4125 23.2778 78.3808 23.3245 78.3407 23.3635C78.2988 23.4046 78.2489 23.4368 78.194 23.458C78.1392 23.4793 78.0805 23.4891 78.0217 23.487H72.9072C72.8444 23.4871 72.7842 23.512 72.7398 23.5562C72.6954 23.6005 72.6704 23.6604 72.6702 23.723V26.11C72.6704 26.1725 72.6954 26.2325 72.7398 26.2767C72.7842 26.321 72.8444 26.3459 72.9072 26.346H78.5533C78.6122 26.3434 78.6709 26.3531 78.7258 26.3743C78.7808 26.3956 78.8306 26.428 78.8723 26.4695C78.9139 26.511 78.9465 26.5606 78.9678 26.6153C78.9892 26.67 78.9989 26.7285 78.9963 26.7871V28.1807C78.999 28.2393 78.9893 28.2979 78.968 28.3526C78.9466 28.4073 78.9141 28.457 78.8724 28.4985C78.8308 28.54 78.7809 28.5724 78.7259 28.5936C78.671 28.6148 78.6122 28.6245 78.5533 28.6218H70.3843Z" fill="white"/>
    <path d="M84.2767 28.6219C84.2179 28.6245 84.1591 28.6149 84.1041 28.5937C84.0492 28.5724 83.9993 28.54 83.9576 28.4985C83.9159 28.457 83.8834 28.4073 83.8621 28.3526C83.8407 28.2979 83.8311 28.2394 83.8337 28.1807V18.9609C83.8336 18.8984 83.8086 18.8384 83.7642 18.7942C83.7198 18.7499 83.6595 18.725 83.5967 18.7249H80.6087C80.5528 18.7252 80.4974 18.7144 80.4457 18.6932C80.3939 18.672 80.347 18.6408 80.3074 18.6014C80.2679 18.562 80.2366 18.5153 80.2153 18.4638C80.194 18.4123 80.1832 18.3571 80.1834 18.3014V16.7133C80.1812 16.6548 80.1911 16.5964 80.2124 16.5418C80.2338 16.4871 80.2661 16.4374 80.3074 16.3957C80.3465 16.3558 80.3934 16.3242 80.4452 16.3029C80.497 16.2817 80.5527 16.2712 80.6087 16.2722H89.894C89.9529 16.2696 90.0116 16.2793 90.0665 16.3005C90.1214 16.3218 90.1713 16.3542 90.213 16.3957C90.2546 16.4372 90.2872 16.4868 90.3085 16.5415C90.3299 16.5962 90.3396 16.6547 90.337 16.7133V18.3014C90.338 18.3572 90.3275 18.4126 90.3061 18.4642C90.2848 18.5158 90.2531 18.5625 90.213 18.6014C90.1711 18.6426 90.1212 18.6748 90.0663 18.696C90.0114 18.7172 89.9528 18.7271 89.894 18.7249H86.9259C86.863 18.7249 86.8027 18.7498 86.7583 18.7941C86.7138 18.8383 86.6889 18.8983 86.6889 18.9609V28.1807C86.6915 28.2394 86.6819 28.2979 86.6605 28.3526C86.6392 28.4073 86.6067 28.457 86.565 28.4985C86.5233 28.54 86.4734 28.5724 86.4185 28.5937C86.3635 28.6149 86.3048 28.6245 86.2459 28.6219H84.2767Z" fill="white"/>
    <path d="M12.4487 9.95068H10.8051C10.4883 9.95068 10.2314 10.2065 10.2314 10.522V12.1586C10.2314 12.4741 10.4883 12.7299 10.8051 12.7299H12.4487C12.7655 12.7299 13.0224 12.4741 13.0224 12.1586V10.522C13.0224 10.2065 12.7655 9.95068 12.4487 9.95068Z" fill="white"/>
    <path d="M12.4487 5.16425H10.8051C10.4883 5.16425 10.2314 5.42001 10.2314 5.73552V7.37215C10.2314 7.68765 10.4883 7.94342 10.8051 7.94342H12.4487C12.7655 7.94342 13.0224 7.68765 13.0224 7.37215V5.73552C13.0224 5.42001 12.7655 5.16425 12.4487 5.16425Z" fill="white"/>
    <path d="M17.2331 25.8317H15.5896C15.2727 25.8317 15.0159 26.0874 15.0159 26.4029V28.0396C15.0159 28.3551 15.2727 28.6108 15.5896 28.6108H17.2331C17.5499 28.6108 17.8068 28.3551 17.8068 28.0396V26.4029C17.8068 26.0874 17.5499 25.8317 17.2331 25.8317Z" fill="white"/>
    <path d="M17.2331 21.0453H15.5896C15.2727 21.0453 15.0159 21.3011 15.0159 21.6166V23.2532C15.0159 23.5687 15.2727 23.8245 15.5896 23.8245H17.2331C17.5499 23.8245 17.8068 23.5687 17.8068 23.2532V21.6166C17.8068 21.3011 17.5499 21.0453 17.2331 21.0453Z" fill="white"/>
    <path d="M17.2331 16.2589H15.5896C15.2727 16.2589 15.0159 16.5147 15.0159 16.8302V18.4668C15.0159 18.7823 15.2727 19.0381 15.5896 19.0381H17.2331C17.5499 19.0381 17.8068 18.7823 17.8068 18.4668V16.8302C17.8068 16.5147 17.5499 16.2589 17.2331 16.2589Z" fill="white"/>
    <path d="M12.4487 16.2589H10.8051C10.4883 16.2589 10.2314 16.5147 10.2314 16.8302V18.4668C10.2314 18.7823 10.4883 19.0381 10.8051 19.0381H12.4487C12.7655 19.0381 13.0224 18.7823 13.0224 18.4668V16.8302C13.0224 16.5147 12.7655 16.2589 12.4487 16.2589Z" fill="white"/>
    <path d="M7.66424 16.2589H6.02071C5.70387 16.2589 5.44702 16.5147 5.44702 16.8302V18.4668C5.44702 18.7823 5.70387 19.0381 6.02071 19.0381H7.66424C7.98108 19.0381 8.23793 18.7823 8.23793 18.4668V16.8302C8.23793 16.5147 7.98108 16.2589 7.66424 16.2589Z" fill="white"/>
    <path d="M2.87982 16.2589H1.23628C0.919446 16.2589 0.662598 16.5147 0.662598 16.8302V18.4668C0.662598 18.7823 0.919446 19.0381 1.23628 19.0381H2.87982C3.19666 19.0381 3.4535 18.7823 3.4535 18.4668V16.8302C3.4535 16.5147 3.19666 16.2589 2.87982 16.2589Z" fill="white"/>
    <path d="M13.0222 23.2752V21.6386C13.0222 21.3231 12.7654 21.0673 12.4485 21.0673H10.805C10.4882 21.0673 10.2313 21.3231 10.2313 21.6386V23.2752C10.2313 23.5907 10.4882 23.8465 10.805 23.8465H12.4485C12.7654 23.8465 13.0222 23.5907 13.0222 23.2752Z" fill="white"/>
    <path d="M10.2092 6.54907H13.0001C12.6642 6.88358 12.3977 7.28072 12.2159 7.7178C12.034 8.15487 11.9405 8.62334 11.9405 9.09643C11.9405 9.56952 12.034 10.038 12.2159 10.4751C12.3977 10.9121 12.6642 11.3093 13.0001 11.6438H10.2092C10.5452 11.3093 10.8117 10.9121 10.9935 10.4751C11.1753 10.038 11.2689 9.56952 11.2689 9.09643C11.2689 8.62334 11.1753 8.15487 10.9935 7.7178C10.8117 7.28072 10.5452 6.88358 10.2092 6.54907Z" fill="white"/>
    <path d="M10.2092 17.4893H13.0001C12.6642 17.8238 12.3977 18.2209 12.2159 18.658C12.034 19.0951 11.9405 19.5635 11.9405 20.0366C11.9405 20.5097 12.034 20.9782 12.2159 21.4153C12.3977 21.8523 12.6642 22.2495 13.0001 22.584H10.2092C10.5452 22.2495 10.8117 21.8523 10.9935 21.4153C11.1753 20.9782 11.2689 20.5097 11.2689 20.0366C11.2689 19.5635 11.1753 19.0951 10.9935 18.658C10.8117 18.2209 10.5452 17.8238 10.2092 17.4893Z" fill="white"/>
    <path d="M11.771 16.2651V19.0443C11.435 18.7098 11.0361 18.4444 10.5972 18.2633C10.1582 18.0822 9.68776 17.9891 9.21263 17.9891C8.7375 17.9891 8.26703 18.0822 7.82807 18.2633C7.38911 18.4444 6.99026 18.7098 6.6543 19.0443V16.2651C7.33298 16.9405 8.25317 17.3198 9.21263 17.3198C10.1721 17.3198 11.0923 16.9405 11.771 16.2651Z" fill="white"/>
    <path d="M16.5994 21.0294V23.8086C16.2635 23.474 15.8646 23.2087 15.4257 23.0276C14.9867 22.8465 14.5162 22.7533 14.0411 22.7533C13.566 22.7533 13.0955 22.8465 12.6566 23.0276C12.2176 23.2087 11.8188 23.474 11.4828 23.8086V21.0294C12.1615 21.7048 13.0817 22.0841 14.0411 22.0841C15.0006 22.0841 15.9208 21.7048 16.5994 21.0294Z" fill="white"/>
    <path d="M17.024 9.95068H15.3804C15.0636 9.95068 14.8068 10.2065 14.8068 10.522V12.1586C14.8068 12.4741 15.0636 12.7299 15.3804 12.7299H17.024C17.3408 12.7299 17.5977 12.4741 17.5977 12.1586V10.522C17.5977 10.2065 17.3408 9.95068 17.024 9.95068Z" fill="white"/>
    <path d="M17.024 5.16425H15.3804C15.0636 5.16425 14.8068 5.42001 14.8068 5.73552V7.37215C14.8068 7.68765 15.0636 7.94342 15.3804 7.94342H17.024C17.3408 7.94342 17.5977 7.68765 17.5977 7.37215V5.73552C17.5977 5.42001 17.3408 5.16425 17.024 5.16425Z" fill="white"/>
    <path d="M17.024 0.37793H15.3804C15.0636 0.37793 14.8068 0.633698 14.8068 0.949205V2.58583C14.8068 2.90134 15.0636 3.15711 15.3804 3.15711H17.024C17.3408 3.15711 17.5977 2.90134 17.5977 2.58583V0.949205C17.5977 0.633698 17.3408 0.37793 17.024 0.37793Z" fill="white"/>
    <path d="M14.7845 1.6524H17.5755C17.2395 1.98692 16.973 2.38405 16.7912 2.82113C16.6094 3.25821 16.5158 3.72667 16.5158 4.19976C16.5158 4.67286 16.6094 5.14132 16.7912 5.57839C16.973 6.01547 17.2395 6.41261 17.5755 6.74712H14.7845C15.1205 6.41261 15.387 6.01547 15.5688 5.57839C15.7506 5.14132 15.8442 4.67286 15.8442 4.19976C15.8442 3.72667 15.7506 3.25821 15.5688 2.82113C15.387 2.38405 15.1205 1.98692 14.7845 1.6524Z" fill="white"/>
    <path d="M14.7845 6.54907H17.5755C17.2395 6.88358 16.973 7.28072 16.7912 7.7178C16.6094 8.15487 16.5158 8.62334 16.5158 9.09643C16.5158 9.56952 16.6094 10.038 16.7912 10.4751C16.973 10.9121 17.2395 11.3093 17.5755 11.6438H14.7845C15.1205 11.3093 15.387 10.9121 15.5688 10.4751C15.7506 10.038 15.8442 9.56952 15.8442 9.09643C15.8442 8.62334 15.7506 8.15487 15.5688 7.7178C15.387 7.28072 15.1205 6.88358 14.7845 6.54907Z" fill="white"/>
    <path d="M7.66424 9.95068H6.02071C5.70387 9.95068 5.44702 10.2065 5.44702 10.522V12.1586C5.44702 12.4741 5.70387 12.7299 6.02071 12.7299H7.66424C7.98108 12.7299 8.23793 12.4741 8.23793 12.1586V10.522C8.23793 10.2065 7.98108 9.95068 7.66424 9.95068Z" fill="white"/>
    <path d="M2.87982 9.95068H1.23628C0.919446 9.95068 0.662598 10.2065 0.662598 10.522V12.1586C0.662598 12.4741 0.919446 12.7299 1.23628 12.7299H2.87982C3.19666 12.7299 3.4535 12.4741 3.4535 12.1586V10.522C3.4535 10.2065 3.19666 9.95068 2.87982 9.95068Z" fill="white"/>
    <path d="M11.627 12.7298V9.93889C11.9615 10.2748 12.3586 10.5413 12.7957 10.7232C13.2328 10.905 13.7012 10.9986 14.1743 10.9986C14.6474 10.9986 15.1159 10.905 15.5529 10.7232C15.99 10.5413 16.3872 10.2748 16.7217 9.93889V12.7298C16.3872 12.3938 15.99 12.1273 15.5529 11.9455C15.1159 11.7637 14.6474 11.6701 14.1743 11.6701C13.7012 11.6701 13.2328 11.7637 12.7957 11.9455C12.3586 12.1273 11.9615 12.3938 11.627 12.7298Z" fill="white"/>
    <path d="M6.51001 12.7581V9.96721C6.84452 10.3032 7.24166 10.5697 7.67873 10.7515C8.11581 10.9333 8.58427 11.0269 9.05737 11.0269C9.53046 11.0269 9.99892 10.9333 10.436 10.7515C10.8731 10.5697 11.2702 10.3032 11.6047 9.96721V12.7581C11.2702 12.4222 10.8731 12.1557 10.436 11.9738C9.99892 11.792 9.53046 11.6984 9.05737 11.6984C8.58427 11.6984 8.11581 11.792 7.67873 11.9738C7.24166 12.1557 6.84452 12.4222 6.51001 12.7581Z" fill="white"/>
    <path d="M1.86987 12.7298L1.86987 9.93889C2.20439 10.2748 2.60152 10.5413 3.0386 10.7232C3.47568 10.905 3.94414 10.9986 4.41723 10.9986C4.89032 10.9986 5.35879 10.905 5.79586 10.7232C6.23294 10.5413 6.63008 10.2748 6.96459 9.93889V12.7298C6.63008 12.3938 6.23294 12.1273 5.79586 11.9455C5.35879 11.7637 4.89032 11.6701 4.41723 11.6701C3.94414 11.6701 3.47568 11.7637 3.0386 11.9455C2.60152 12.1273 2.20439 12.3938 1.86987 12.7298Z" fill="white"/>
</svg>
