<svg width="40" height="66" viewBox="0 0 40 66" fill="none" xmlns="http://www.w3.org/2000/svg">
    <path d="M27.3757 22.6479H23.6312C22.9094 22.6479 22.3242 23.2307 22.3242 23.9495V27.6782C22.3242 28.397 22.9094 28.9797 23.6312 28.9797H27.3757C28.0975 28.9797 28.6827 28.397 28.6827 27.6782V23.9495C28.6827 23.2307 28.0975 22.6479 27.3757 22.6479Z" fill="white"/>
    <path d="M27.3757 11.7432H23.6312C22.9094 11.7432 22.3242 12.3259 22.3242 13.0447V16.7734C22.3242 17.4922 22.9094 18.0749 23.6312 18.0749H27.3757C28.0975 18.0749 28.6827 17.4922 28.6827 16.7734V13.0447C28.6827 12.3259 28.0975 11.7432 27.3757 11.7432Z" fill="white"/>
    <path d="M38.2761 58.8298H34.5316C33.8098 58.8298 33.2246 59.4125 33.2246 60.1314V63.86C33.2246 64.5789 33.8098 65.1616 34.5316 65.1616H38.2761C38.9979 65.1616 39.5831 64.5789 39.5831 63.86V60.1314C39.5831 59.4125 38.9979 58.8298 38.2761 58.8298Z" fill="white"/>
    <path d="M38.2761 47.9243H34.5316C33.8098 47.9243 33.2246 48.507 33.2246 49.2258V52.9545C33.2246 53.6733 33.8098 54.2561 34.5316 54.2561H38.2761C38.9979 54.2561 39.5831 53.6733 39.5831 52.9545V49.2258C39.5831 48.507 38.9979 47.9243 38.2761 47.9243Z" fill="white"/>
    <path d="M38.2761 37.02H34.5316C33.8098 37.02 33.2246 37.6027 33.2246 38.3215V42.0502C33.2246 42.769 33.8098 43.3517 34.5316 43.3517H38.2761C38.9979 43.3517 39.5831 42.769 39.5831 42.0502V38.3215C39.5831 37.6027 38.9979 37.02 38.2761 37.02Z" fill="white"/>
    <path d="M27.3757 37.02H23.6312C22.9094 37.02 22.3242 37.6027 22.3242 38.3215V42.0502C22.3242 42.769 22.9094 43.3517 23.6312 43.3517H27.3757C28.0975 43.3517 28.6827 42.769 28.6827 42.0502V38.3215C28.6827 37.6027 28.0975 37.02 27.3757 37.02Z" fill="white"/>
    <path d="M16.4753 37.02H12.7308C12.009 37.02 11.4238 37.6027 11.4238 38.3215V42.0502C11.4238 42.769 12.009 43.3517 12.7308 43.3517H16.4753C17.1971 43.3517 17.7823 42.769 17.7823 42.0502V38.3215C17.7823 37.6027 17.1971 37.02 16.4753 37.02Z" fill="white"/>
    <path d="M5.57488 37.02H1.83045C1.10861 37.02 0.523438 37.6027 0.523438 38.3215V42.0502C0.523438 42.769 1.10861 43.3517 1.83045 43.3517H5.57488C6.29672 43.3517 6.8819 42.769 6.8819 42.0502V38.3215C6.8819 37.6027 6.29672 37.02 5.57488 37.02Z" fill="white"/>
    <path d="M28.6816 53.0053V49.2766C28.6816 48.5578 28.0965 47.9751 27.3746 47.9751H23.6302C22.9084 47.9751 22.3232 48.5578 22.3232 49.2766V53.0053C22.3232 53.7241 22.9084 54.3068 23.6302 54.3068H27.3746C28.0965 54.3068 28.6816 53.7241 28.6816 53.0053Z" fill="white"/>
    <path d="M22.2744 14.8982H28.6329C27.8675 15.6603 27.2603 16.5651 26.8461 17.5609C26.4318 18.5567 26.2186 19.6239 26.2186 20.7018C26.2186 21.7796 26.4318 22.8469 26.8461 23.8427C27.2603 24.8385 27.8675 25.7433 28.6329 26.5054H22.2744C23.0398 25.7433 23.647 24.8385 24.0612 23.8427C24.4754 22.8469 24.6886 21.7796 24.6886 20.7018C24.6886 19.6239 24.4754 18.5567 24.0612 17.5609C23.647 16.5651 23.0398 15.6603 22.2744 14.8982Z" fill="white"/>
    <path d="M22.2744 39.823H28.6329C27.8675 40.5851 27.2603 41.4899 26.8461 42.4857C26.4318 43.4815 26.2186 44.5488 26.2186 45.6266C26.2186 46.7044 26.4318 47.7717 26.8461 48.7675C27.2603 49.7633 27.8675 50.6681 28.6329 51.4302H22.2744C23.0398 50.6681 23.647 49.7633 24.0612 48.7675C24.4754 47.7717 24.6886 46.7044 24.6886 45.6266C24.6886 44.5488 24.4754 43.4815 24.0612 42.4857C23.647 41.4899 23.0398 40.5851 22.2744 39.823Z" fill="white"/>
    <path d="M25.829 37.0339V43.3657C25.0636 42.6035 24.1549 41.9988 23.1549 41.5863C22.1548 41.1738 21.0829 40.9615 20.0005 40.9615C18.918 40.9615 17.8461 41.1738 16.846 41.5863C15.846 41.9988 14.9373 42.6035 14.1719 43.3657V37.0339C15.7181 38.5726 17.8146 39.4369 20.0005 39.4369C22.1864 39.4369 24.2828 38.5726 25.829 37.0339Z" fill="white"/>
    <path d="M36.832 47.8882V54.2199C36.0666 53.4577 35.1579 52.8531 34.1578 52.4406C33.1577 52.0281 32.0859 51.8158 31.0034 51.8158C29.9209 51.8158 28.849 52.0281 27.849 52.4406C26.8489 52.8531 25.9402 53.4577 25.1748 54.2199V47.8882C26.721 49.4268 28.8175 50.2911 31.0034 50.2911C33.1893 50.2911 35.2858 49.4268 36.832 47.8882Z" fill="white"/>
    <path d="M37.8005 22.6479H34.056C33.3342 22.6479 32.749 23.2307 32.749 23.9495V27.6782C32.749 28.397 33.3342 28.9797 34.056 28.9797H37.8005C38.5223 28.9797 39.1075 28.397 39.1075 27.6782V23.9495C39.1075 23.2307 38.5223 22.6479 37.8005 22.6479Z" fill="white"/>
    <path d="M37.8005 11.7432H34.056C33.3342 11.7432 32.749 12.3259 32.749 13.0447V16.7734C32.749 17.4922 33.3342 18.0749 34.056 18.0749H37.8005C38.5223 18.0749 39.1075 17.4922 39.1075 16.7734V13.0447C39.1075 12.3259 38.5223 11.7432 37.8005 11.7432Z" fill="white"/>
    <path d="M37.8005 0.838623H34.056C33.3342 0.838623 32.749 1.42133 32.749 2.14015V5.86883C32.749 6.58765 33.3342 7.17036 34.056 7.17036H37.8005C38.5223 7.17036 39.1075 6.58765 39.1075 5.86883V2.14015C39.1075 1.42133 38.5223 0.838623 37.8005 0.838623Z" fill="white"/>
    <path d="M32.6973 3.74219H39.0557C38.2903 4.5043 37.6832 5.40908 37.2689 6.40486C36.8547 7.40065 36.6415 8.46793 36.6415 9.54577C36.6415 10.6236 36.8547 11.6909 37.2689 12.6867C37.6832 13.6825 38.2903 14.5872 39.0557 15.3494H32.6973C33.4627 14.5872 34.0698 13.6825 34.4841 12.6867C34.8983 11.6909 35.1115 10.6236 35.1115 9.54577C35.1115 8.46793 34.8983 7.40065 34.4841 6.40486C34.0698 5.40908 33.4627 4.5043 32.6973 3.74219Z" fill="white"/>
    <path d="M32.6973 14.8982H39.0557C38.2903 15.6603 37.6832 16.5651 37.2689 17.5609C36.8547 18.5567 36.6415 19.6239 36.6415 20.7018C36.6415 21.7796 36.8547 22.8469 37.2689 23.8427C37.6832 24.8385 38.2903 25.7433 39.0557 26.5054H32.6973C33.4627 25.7433 34.0698 24.8385 34.4841 23.8427C34.8983 22.8469 35.1115 21.7796 35.1115 20.7018C35.1115 19.6239 34.8983 18.5567 34.4841 17.5609C34.0698 16.5651 33.4627 15.6603 32.6973 14.8982Z" fill="white"/>
    <path d="M16.4753 22.6479H12.7308C12.009 22.6479 11.4238 23.2307 11.4238 23.9495V27.6782C11.4238 28.397 12.009 28.9797 12.7308 28.9797H16.4753C17.1971 28.9797 17.7823 28.397 17.7823 27.6782V23.9495C17.7823 23.2307 17.1971 22.6479 16.4753 22.6479Z" fill="white"/>
    <path d="M5.57488 22.6479H1.83045C1.10861 22.6479 0.523438 23.2307 0.523438 23.9495V27.6782C0.523438 28.397 1.10861 28.9797 1.83045 28.9797H5.57488C6.29672 28.9797 6.88189 28.397 6.88189 27.6782V23.9495C6.88189 23.2307 6.29672 22.6479 5.57488 22.6479Z" fill="white"/>
    <path d="M25.501 28.9792V22.6208C26.2631 23.3862 27.1679 23.9933 28.1637 24.4076C29.1594 24.8218 30.2267 25.035 31.3046 25.035C32.3824 25.035 33.4497 24.8218 34.4455 24.4076C35.4413 23.9933 36.346 23.3862 37.1081 22.6208V28.9792C36.346 28.2138 35.4413 27.6067 34.4455 27.1925C33.4497 26.7782 32.3824 26.565 31.3046 26.565C30.2267 26.565 29.1594 26.7782 28.1637 27.1925C27.1679 27.6067 26.2631 28.2138 25.501 28.9792Z" fill="white"/>
    <path d="M13.8457 29.0437V22.6852C14.6078 23.4506 15.5126 24.0578 16.5084 24.472C17.5042 24.8863 18.5714 25.0995 19.6493 25.0995C20.7271 25.0995 21.7944 24.8863 22.7902 24.472C23.786 24.0578 24.6908 23.4506 25.4529 22.6852V29.0437C24.6908 28.2783 23.786 27.6711 22.7902 27.2569C21.7944 26.8427 20.7271 26.6295 19.6493 26.6295C18.5714 26.6295 17.5042 26.8427 16.5084 27.2569C15.5126 27.6711 14.6078 28.2783 13.8457 29.0437Z" fill="white"/>
    <path d="M3.27344 28.9792L3.27344 22.6208C4.03555 23.3862 4.94033 23.9933 5.93612 24.4076C6.9319 24.8218 7.99918 25.035 9.07702 25.035C10.1549 25.035 11.2221 24.8218 12.2179 24.4076C13.2137 23.9933 14.1185 23.3862 14.8806 22.6208V28.9792C14.1185 28.2138 13.2137 27.6067 12.2179 27.1925C11.2221 26.7782 10.1549 26.565 9.07702 26.565C7.99918 26.565 6.9319 26.7782 5.93612 27.1925C4.94033 27.6067 4.03555 28.2138 3.27344 28.9792Z" fill="white"/>
</svg>
