<svg width="127" height="41" viewBox="0 0 127 41" fill="none" xmlns="http://www.w3.org/2000/svg">
    <path d="M27.1702 18.0087C27.0868 18.0124 27.0036 17.9988 26.9258 17.9687C26.848 17.9387 26.7773 17.8928 26.7183 17.834C26.6593 17.7752 26.6132 17.7049 26.583 17.6274C26.5528 17.5499 26.5391 17.467 26.5428 17.3839V1.1403C26.5398 1.05735 26.5538 0.974658 26.584 0.8973C26.6142 0.819943 26.66 0.749557 26.7185 0.690473C26.7779 0.632208 26.8486 0.586637 26.9262 0.556555C27.0039 0.526474 27.0869 0.512517 27.1702 0.515541H38.3629C38.4462 0.512627 38.5292 0.526635 38.6069 0.55671C38.6845 0.586786 38.7552 0.632298 38.8147 0.690473C38.8731 0.749644 38.9188 0.820044 38.949 0.897381C38.9792 0.974717 38.9933 1.05737 38.9903 1.1403V3.26447C38.9941 3.3475 38.9804 3.4304 38.9502 3.50789C38.92 3.58538 38.8739 3.65575 38.8149 3.71452C38.7559 3.7733 38.6852 3.81919 38.6074 3.84926C38.5296 3.87934 38.4463 3.89295 38.3629 3.88922H30.7934C30.7044 3.88922 30.619 3.92444 30.5561 3.98712C30.4931 4.0498 30.4578 4.13482 30.4578 4.22347V7.77895C30.4578 7.82282 30.4665 7.86625 30.4833 7.90677C30.5002 7.94729 30.525 7.98409 30.5561 8.01508C30.5873 8.04607 30.6243 8.07063 30.665 8.08736C30.7058 8.10409 30.7494 8.11266 30.7934 8.11257H37.861C37.9443 8.10913 38.0275 8.12294 38.1051 8.15312C38.1828 8.1833 38.2534 8.22919 38.3123 8.28791C38.3713 8.34662 38.4174 8.41688 38.4477 8.49423C38.478 8.57159 38.4919 8.65437 38.4884 8.73733V10.8615C38.4897 10.9406 38.4748 11.0191 38.4446 11.0923C38.4144 11.1654 38.3695 11.2317 38.3127 11.287C38.2533 11.3451 38.1826 11.3906 38.105 11.4207C38.0273 11.4508 37.9443 11.4648 37.861 11.4619H30.7934C30.7494 11.4618 30.7058 11.4704 30.665 11.4871C30.6243 11.5038 30.5873 11.5284 30.5561 11.5594C30.525 11.5904 30.5002 11.6272 30.4833 11.6677C30.4665 11.7082 30.4578 11.7516 30.4578 11.7955V17.3839C30.4615 17.467 30.4479 17.5499 30.4177 17.6274C30.3874 17.7049 30.3414 17.7752 30.2823 17.834C30.2233 17.8928 30.1526 17.9387 30.0748 17.9687C29.997 17.9988 29.9138 18.0124 29.8304 18.0087H27.1702Z" fill="#949597"/>
    <path d="M42.4534 18.0087C42.3701 18.0124 42.2868 17.9988 42.209 17.9687C42.1312 17.9387 42.0605 17.8928 42.0015 17.834C41.9425 17.7752 41.8964 17.7049 41.8662 17.6274C41.836 17.5499 41.8223 17.467 41.826 17.3839V1.1403C41.823 1.05735 41.837 0.974658 41.8672 0.8973C41.8974 0.819943 41.9432 0.749557 42.0017 0.690473C42.0611 0.632208 42.1318 0.586637 42.2094 0.556555C42.2871 0.526474 42.3701 0.512517 42.4534 0.515541H45.2893C45.3725 0.512627 45.4555 0.526635 45.5332 0.55671C45.6109 0.586786 45.6816 0.632298 45.741 0.690473C45.7994 0.749644 45.8451 0.820044 45.8753 0.897381C45.9055 0.974717 45.9196 1.05737 45.9166 1.1403V17.3839C45.9204 17.467 45.9067 17.5499 45.8765 17.6274C45.8463 17.7049 45.8002 17.7752 45.7412 17.834C45.6822 17.8928 45.6115 17.9387 45.5337 17.9687C45.4559 17.9988 45.3726 18.0124 45.2893 18.0087H42.4534Z" fill="#949597"/>
    <path d="M50.2576 18.0087C50.1742 18.0124 50.091 17.9988 50.0132 17.9687C49.9354 17.9387 49.8647 17.8928 49.8057 17.834C49.7467 17.7752 49.7006 17.7049 49.6704 17.6274C49.6402 17.5499 49.6265 17.467 49.6302 17.3839V1.1403C49.6272 1.05735 49.6412 0.974658 49.6714 0.8973C49.7016 0.819943 49.7474 0.749557 49.8059 0.690473C49.8653 0.632208 49.936 0.586637 50.0136 0.556555C50.0913 0.526474 50.1743 0.512517 50.2576 0.515541H52.5413C52.7923 0.515541 52.9761 0.574268 53.0935 0.690473C53.1814 0.771263 53.2574 0.864019 53.3193 0.96599L59.4019 10.4254C59.4411 10.4861 59.499 10.5326 59.5669 10.5578C59.6348 10.583 59.7091 10.5857 59.7787 10.5654C59.8483 10.545 59.9094 10.5028 59.9528 10.4451C59.9963 10.3873 60.0198 10.3171 60.0199 10.2449V1.1403C60.0168 1.05735 60.0308 0.974658 60.061 0.8973C60.0912 0.819943 60.137 0.749557 60.1955 0.690473C60.2509 0.633877 60.3173 0.589162 60.3907 0.559078C60.4641 0.528994 60.5428 0.514178 60.6222 0.515541H63.1819C63.2652 0.512627 63.3482 0.526635 63.4259 0.55671C63.5035 0.586786 63.5742 0.632298 63.6336 0.690473C63.6921 0.749644 63.7378 0.820044 63.768 0.897381C63.7982 0.974717 63.8122 1.05737 63.8093 1.1403V17.3839C63.8103 17.547 63.7473 17.7039 63.6336 17.8213C63.5762 17.8828 63.5061 17.9314 63.4282 17.9637C63.3503 17.9961 63.2663 18.0114 63.1819 18.0087H60.8731C60.6222 18.0087 60.4423 17.9462 60.3336 17.8213C60.2382 17.7122 60.1654 17.6316 60.1152 17.5795C60.1009 17.5644 60.0879 17.5481 60.0763 17.5308L54.0358 8.39434C53.9959 8.33397 53.9375 8.28809 53.8693 8.26357C53.801 8.23904 53.7266 8.23719 53.6573 8.2583C53.5879 8.27941 53.5272 8.32234 53.4844 8.38065C53.4416 8.43896 53.4189 8.50952 53.4197 8.58176V17.3839C53.4234 17.467 53.4098 17.5499 53.3796 17.6274C53.3494 17.7049 53.3033 17.7752 53.2443 17.834C53.1852 17.8928 53.1146 17.9387 53.0368 17.9687C52.9589 17.9988 52.8757 18.0124 52.7923 18.0087H50.2576Z" fill="#949597"/>
    <path d="M27.1702 40.4997C27.0066 40.5009 26.849 40.4383 26.731 40.3254C26.6691 40.2681 26.6203 40.1982 26.5878 40.1205C26.5554 40.0428 26.54 39.9591 26.5428 39.875V23.6313C26.5401 23.5473 26.5555 23.4637 26.588 23.3861C26.6204 23.3085 26.6692 23.2387 26.731 23.1815C26.8489 23.0684 27.0065 23.0056 27.1702 23.0066H29.5041C29.7551 23.0066 29.9433 23.0734 30.0688 23.2071C30.1817 23.3271 30.2639 23.4195 30.3159 23.4858C30.3272 23.4998 30.3371 23.5148 30.3454 23.5307L34.6563 31.4401C34.6851 31.4928 34.7277 31.5368 34.7796 31.5674C34.8314 31.598 34.8906 31.6141 34.9508 31.6141C35.0111 31.6141 35.0702 31.598 35.1221 31.5674C35.1739 31.5368 35.2165 31.4928 35.2454 31.4401L39.6177 23.5057C39.6843 23.3965 39.7644 23.296 39.8561 23.2065C39.9816 23.0728 40.1698 23.0059 40.4207 23.0059H42.7546C42.838 23.0023 42.9212 23.016 42.999 23.0461C43.0768 23.0762 43.1474 23.1221 43.2064 23.1809C43.2654 23.2396 43.3115 23.3099 43.3417 23.3874C43.372 23.4648 43.3857 23.5477 43.382 23.6307V39.8743C43.3858 39.9574 43.3721 40.0403 43.3419 40.1178C43.3117 40.1953 43.2656 40.2656 43.2066 40.3244C43.1476 40.3832 43.0769 40.4291 42.9991 40.4591C42.9213 40.4892 42.838 40.5028 42.7546 40.4991H40.1949C40.1156 40.5006 40.0368 40.4859 39.9635 40.4559C39.8901 40.4259 39.8237 40.3813 39.7683 40.3248C39.7097 40.2656 39.6639 40.1951 39.6336 40.1177C39.6034 40.0402 39.5895 39.9574 39.5926 39.8743V31.1128C39.592 31.0384 39.5666 30.9664 39.5204 30.9081C39.4741 30.8497 39.4097 30.8084 39.3372 30.7906C39.2647 30.7729 39.1884 30.7796 39.1202 30.8099C39.052 30.8402 38.9959 30.8923 38.9608 30.9578L36.4054 35.7266C36.3207 35.8776 36.2103 36.0129 36.0792 36.1264C35.9314 36.2479 35.7436 36.3102 35.5522 36.3014H34.3727C34.1813 36.3104 33.9933 36.248 33.8457 36.1264C33.7142 36.0133 33.6037 35.8779 33.5194 35.7266L30.964 30.9578C30.9289 30.8923 30.8728 30.8402 30.8046 30.8099C30.7365 30.7796 30.6601 30.7729 30.5876 30.7906C30.5152 30.8084 30.4507 30.8497 30.4044 30.9081C30.3582 30.9664 30.3328 31.0384 30.3323 31.1128V39.875C30.3352 39.958 30.3212 40.0408 30.291 40.1182C30.2608 40.1957 30.2151 40.2662 30.1566 40.3254C30.1011 40.3818 30.0347 40.4264 29.9613 40.4564C29.888 40.4863 29.8092 40.5011 29.73 40.4997H27.1702Z" fill="#DA4A27"/>
    <path d="M46.0666 40.4998C45.9958 40.5014 45.9256 40.4878 45.8606 40.4598C45.7956 40.4319 45.7375 40.3903 45.6902 40.3379C45.5945 40.241 45.5405 40.1108 45.5396 39.975C45.5391 39.9074 45.5458 39.84 45.5597 39.7738C45.563 39.758 45.5676 39.7426 45.5735 39.7276L51.5337 23.6901C51.5362 23.6845 51.5381 23.6786 51.5393 23.6726C51.5915 23.4919 51.6952 23.3302 51.838 23.2071C51.9885 23.0734 52.1977 23.0066 52.4654 23.0066H55.6776C55.9453 23.0066 56.1544 23.0734 56.305 23.2071C56.4479 23.33 56.5517 23.4918 56.6036 23.6726L56.6093 23.6901L62.5695 39.7269C62.5751 39.7425 62.5797 39.7583 62.5833 39.7744C62.5969 39.8404 62.6034 39.9076 62.6028 39.975C62.6018 40.1108 62.5478 40.241 62.4522 40.3379C62.4048 40.3903 62.3467 40.4319 62.2817 40.4598C62.2168 40.4878 62.1465 40.5014 62.0758 40.4998H59.4658C59.2148 40.4998 59.0304 40.4417 58.9137 40.3255C58.8146 40.2354 58.7373 40.1241 58.6878 40L57.6915 37.416C57.6672 37.3528 57.6242 37.2985 57.5682 37.2602C57.5122 37.2219 57.4458 37.2015 57.3778 37.2017H50.7645C50.6966 37.2016 50.6302 37.222 50.5742 37.2603C50.5182 37.2986 50.4752 37.3528 50.4508 37.416L49.4545 40C49.4048 40.124 49.3276 40.2353 49.2286 40.3255C49.1115 40.4417 48.9275 40.4998 48.6765 40.4998H46.0666ZM51.9402 33.9773H56.1808C56.2344 33.9769 56.2871 33.9638 56.3345 33.939C56.382 33.9141 56.4227 33.8784 56.4535 33.8346C56.4842 33.7909 56.5039 33.7405 56.5111 33.6876C56.5182 33.6347 56.5125 33.5809 56.4945 33.5306L54.3839 27.6579C54.3604 27.5933 54.3175 27.5375 54.2611 27.4981C54.2046 27.4587 54.1373 27.4375 54.0683 27.4375C53.9994 27.4375 53.9321 27.4587 53.8756 27.4981C53.8192 27.5375 53.7763 27.5933 53.7528 27.6579L51.6196 33.5306C51.6012 33.5814 51.5955 33.6359 51.6029 33.6894C51.6104 33.7429 51.6307 33.7938 51.6622 33.8377C51.6938 33.8816 51.7355 33.9173 51.784 33.9416C51.8324 33.9659 51.886 33.9782 51.9402 33.9773Z" fill="#DA4A27"/>
    <path d="M65.3904 40.4996C65.3071 40.5033 65.2238 40.4897 65.146 40.4596C65.0682 40.4296 64.9975 40.3837 64.9385 40.3249C64.8795 40.2661 64.8334 40.1957 64.8032 40.1183C64.773 40.0408 64.7593 39.9579 64.7631 39.8748V23.6312C64.7594 23.5482 64.7731 23.4653 64.8034 23.3879C64.8336 23.3104 64.8797 23.2401 64.9387 23.1813C64.9977 23.1226 65.0683 23.0767 65.1461 23.0466C65.2239 23.0165 65.3071 23.0028 65.3904 23.0064H72.0408C74.1321 23.0064 75.7801 23.4854 76.9847 24.4434C78.1893 25.4013 78.7916 26.7802 78.7916 28.5799C78.7916 29.7957 78.4988 30.8117 77.9132 31.6281C77.3928 32.353 76.6933 32.9319 75.8823 33.3087C75.841 33.3284 75.8041 33.3564 75.7741 33.391C75.744 33.4255 75.7214 33.4658 75.7077 33.5093C75.6939 33.5529 75.6893 33.5989 75.6941 33.6443C75.6989 33.6897 75.713 33.7337 75.7355 33.7735L79.0927 39.7005C79.1389 39.7849 79.1646 39.8788 79.168 39.9748C79.1671 40.1107 79.1131 40.2409 79.0174 40.3378C78.9701 40.3902 78.9119 40.4317 78.847 40.4597C78.782 40.4876 78.7117 40.5012 78.641 40.4996H75.8554C75.5542 40.4996 75.3284 40.4207 75.1778 40.2628C75.0485 40.1334 74.9386 39.9861 74.8515 39.8255L71.8846 34.2795C71.8561 34.2259 71.8134 34.1811 71.7613 34.1499C71.7091 34.1186 71.6494 34.1021 71.5885 34.1021H69.0889C69 34.1023 68.9147 34.1375 68.8518 34.2002C68.7889 34.2628 68.7534 34.3477 68.7533 34.4363V39.8717C68.757 39.9548 68.7434 40.0377 68.7131 40.1151C68.6829 40.1926 68.6369 40.263 68.5778 40.3218C68.5188 40.3805 68.4481 40.4264 68.3703 40.4565C68.2925 40.4866 68.2093 40.5002 68.1259 40.4965L65.3904 40.4996ZM68.7533 30.5947C68.7534 30.6833 68.7889 30.7681 68.8518 30.8307C68.9147 30.8932 69 30.9283 69.0889 30.9283H71.9655C72.8857 30.9283 73.5675 30.7201 74.0108 30.3036C74.4542 29.8871 74.6759 29.304 74.6759 28.5543C74.6759 27.8046 74.4584 27.2133 74.0234 26.7806C73.5884 26.3478 72.9024 26.131 71.9655 26.1302H69.0889C69 26.1304 68.9147 26.1656 68.8518 26.2283C68.7889 26.2909 68.7534 26.3759 68.7533 26.4645V30.5947Z" fill="#DA4A27"/>
    <path d="M82.5057 40.4997C82.4223 40.5034 82.339 40.4898 82.2612 40.4598C82.1834 40.4297 82.1127 40.3838 82.0537 40.325C81.9947 40.2662 81.9486 40.1959 81.9184 40.1184C81.8882 40.0409 81.8745 39.958 81.8783 39.875V23.6313C81.8746 23.5483 81.8884 23.4654 81.9186 23.388C81.9489 23.3105 81.9949 23.2402 82.0539 23.1815C82.1129 23.1227 82.1836 23.0768 82.2613 23.0467C82.3391 23.0166 82.4223 23.0029 82.5057 23.0065H85.1658C85.2492 23.0029 85.3324 23.0166 85.4102 23.0467C85.4879 23.0768 85.5586 23.1227 85.6176 23.1815C85.6766 23.2402 85.7227 23.3105 85.7529 23.388C85.7831 23.4654 85.7969 23.5483 85.7932 23.6313V28.4419C85.7932 28.5098 85.814 28.576 85.8528 28.6319C85.8915 28.6877 85.9464 28.7305 86.0102 28.7545C86.0739 28.7785 86.1435 28.7826 86.2096 28.7663C86.2758 28.7499 86.3354 28.714 86.3805 28.6631L90.9605 23.4776C91.0529 23.3534 91.1678 23.2475 91.2992 23.1652C91.4578 23.0569 91.6711 23.0028 91.9392 23.0028H94.9758C95.0466 23.0013 95.1169 23.015 95.1818 23.0431C95.2468 23.0711 95.3049 23.1128 95.3522 23.1652C95.4479 23.2622 95.5019 23.3923 95.5028 23.5282C95.5052 23.6367 95.4697 23.7427 95.4024 23.8281L89.1354 31.1609C89.0846 31.2211 89.0568 31.2972 89.0568 31.3758C89.0568 31.4544 89.0846 31.5305 89.1354 31.5907L95.8817 39.6713C95.9176 39.7122 95.9449 39.7597 95.9621 39.8112C95.9794 39.8627 95.9862 39.9171 95.9821 39.9712C95.9812 40.1071 95.9272 40.2372 95.8315 40.3342C95.7842 40.3865 95.7261 40.4281 95.6611 40.456C95.5961 40.484 95.5259 40.4976 95.4551 40.496H92.3181C92.017 40.496 91.7911 40.4293 91.6406 40.2961C91.4988 40.1711 91.4015 40.0826 91.3488 40.0305C91.3419 40.0243 91.3363 40.018 91.33 40.0112L86.3824 34.304C86.3375 34.2526 86.278 34.2161 86.2118 34.1992C86.1455 34.1824 86.0757 34.1862 86.0117 34.2099C85.9476 34.2337 85.8924 34.2764 85.8533 34.3323C85.8143 34.3882 85.7933 34.4546 85.7932 34.5227V39.8712C85.797 39.9543 85.7833 40.0372 85.7531 40.1146C85.7229 40.1921 85.6768 40.2625 85.6178 40.3213C85.5588 40.38 85.4881 40.4259 85.4103 40.456C85.3325 40.4861 85.2492 40.4997 85.1658 40.496L82.5057 40.4997Z" fill="#DA4A27"/>
    <path d="M98.742 40.4996C98.6586 40.5033 98.5754 40.4897 98.4976 40.4596C98.4198 40.4296 98.3491 40.3837 98.2901 40.3249C98.231 40.2661 98.185 40.1957 98.1547 40.1183C98.1245 40.0408 98.1109 39.9579 98.1146 39.8748V23.6312C98.111 23.5482 98.1247 23.4653 98.1549 23.3879C98.1852 23.3104 98.2313 23.2401 98.2903 23.1813C98.3493 23.1226 98.4199 23.0767 98.4977 23.0466C98.5754 23.0165 98.6587 23.0028 98.742 23.0064H110.11C110.194 23.0028 110.277 23.0165 110.355 23.0466C110.433 23.0767 110.503 23.1226 110.562 23.1813C110.621 23.2401 110.667 23.3104 110.697 23.3879C110.728 23.4653 110.741 23.5482 110.738 23.6312V25.6304C110.739 25.7094 110.724 25.7879 110.694 25.8609C110.664 25.934 110.619 26.0001 110.562 26.0552C110.503 26.1135 110.432 26.1591 110.354 26.1892C110.277 26.2193 110.194 26.2332 110.11 26.2302H102.315C102.226 26.2303 102.141 26.2656 102.078 26.3283C102.015 26.3909 101.98 26.4758 101.979 26.5644V29.82C101.98 29.9086 102.015 29.9935 102.078 30.0562C102.141 30.1188 102.226 30.1541 102.315 30.1543H109.558C109.642 30.1506 109.725 30.1643 109.803 30.1944C109.88 30.2245 109.951 30.2704 110.01 30.3292C110.069 30.3879 110.115 30.4583 110.145 30.5357C110.176 30.6131 110.189 30.696 110.186 30.779V32.6277C110.187 32.7067 110.172 32.7851 110.142 32.8582C110.112 32.9312 110.067 32.9974 110.01 33.0525C109.951 33.1108 109.88 33.1564 109.802 33.1865C109.725 33.2166 109.642 33.2305 109.558 33.2274H102.315C102.226 33.2276 102.141 33.2629 102.078 33.3255C102.015 33.3882 101.98 33.4731 101.979 33.5617V36.9422C101.98 37.0308 102.015 37.1158 102.078 37.1784C102.141 37.241 102.226 37.2763 102.315 37.2765H110.311C110.395 37.2728 110.478 37.2865 110.556 37.3166C110.633 37.3467 110.704 37.3926 110.763 37.4514C110.822 37.5101 110.868 37.5805 110.898 37.6579C110.928 37.7354 110.942 37.8182 110.939 37.9012V39.8748C110.942 39.9579 110.929 40.0408 110.898 40.1183C110.868 40.1957 110.822 40.2661 110.763 40.3249C110.704 40.3837 110.633 40.4296 110.556 40.4596C110.478 40.4897 110.395 40.5033 110.311 40.4996H98.742Z" fill="#DA4A27"/>
    <path d="M118.417 40.4999C118.334 40.5036 118.25 40.49 118.172 40.4599C118.095 40.4299 118.024 40.384 117.965 40.3252C117.906 40.2664 117.86 40.1961 117.83 40.1186C117.799 40.0411 117.786 39.9582 117.79 39.8751V26.8177C117.789 26.7291 117.754 26.6442 117.691 26.5816C117.628 26.5189 117.543 26.4837 117.454 26.4835H113.222C113.143 26.4838 113.064 26.4685 112.991 26.4385C112.918 26.4085 112.851 26.3643 112.795 26.3086C112.739 26.2528 112.695 26.1866 112.665 26.1136C112.635 26.0407 112.619 25.9626 112.62 25.8837V23.6346C112.617 23.5517 112.631 23.469 112.661 23.3916C112.691 23.3143 112.737 23.2439 112.795 23.1848C112.851 23.1282 112.917 23.0835 112.991 23.0534C113.064 23.0233 113.143 23.0085 113.222 23.0098H126.372C126.456 23.0062 126.539 23.0199 126.617 23.05C126.694 23.0801 126.765 23.126 126.824 23.1848C126.883 23.2435 126.929 23.3138 126.959 23.3913C126.99 23.4687 127.003 23.5516 127 23.6346V25.8837C127.001 25.9627 126.986 26.0412 126.956 26.1142C126.926 26.1873 126.881 26.2534 126.824 26.3086C126.765 26.3669 126.694 26.4124 126.616 26.4425C126.539 26.4726 126.456 26.4866 126.372 26.4835H122.169C122.08 26.4835 121.994 26.5187 121.931 26.5814C121.868 26.6441 121.833 26.7291 121.833 26.8177V39.8751C121.837 39.9582 121.823 40.0411 121.793 40.1186C121.763 40.1961 121.717 40.2664 121.658 40.3252C121.599 40.384 121.528 40.4299 121.45 40.4599C121.372 40.49 121.289 40.5036 121.206 40.4999H118.417Z" fill="#DA4A27"/>
    <path d="M16.6916 14.0571H14.364C13.9153 14.0571 13.5515 14.4194 13.5515 14.8662V17.184C13.5515 17.6309 13.9153 17.9931 14.364 17.9931H16.6916C17.1403 17.9931 17.5041 17.6309 17.5041 17.184V14.8662C17.5041 14.4194 17.1403 14.0571 16.6916 14.0571Z" fill="#949597"/>
    <path d="M16.6916 7.27832H14.364C13.9153 7.27832 13.5515 7.64055 13.5515 8.08738V10.4052C13.5515 10.8521 13.9153 11.2143 14.364 11.2143H16.6916C17.1403 11.2143 17.5041 10.8521 17.5041 10.4052V8.08738C17.5041 7.64055 17.1403 7.27832 16.6916 7.27832Z" fill="#949597"/>
    <path d="M23.4675 36.5483H21.1399C20.6912 36.5483 20.3274 36.9106 20.3274 37.3574V39.6752C20.3274 40.1221 20.6912 40.4843 21.1399 40.4843H23.4675C23.9162 40.4843 24.28 40.1221 24.28 39.6752V37.3574C24.28 36.9106 23.9162 36.5483 23.4675 36.5483Z" fill="#DA4A27"/>
    <path d="M23.4675 29.7695H21.1399C20.6912 29.7695 20.3274 30.1318 20.3274 30.5786V32.8964C20.3274 33.3433 20.6912 33.7055 21.1399 33.7055H23.4675C23.9162 33.7055 24.28 33.3433 24.28 32.8964V30.5786C24.28 30.1318 23.9162 29.7695 23.4675 29.7695Z" fill="#DA4A27"/>
    <path d="M23.4675 22.991H21.1399C20.6912 22.991 20.3274 23.3532 20.3274 23.8V26.1179C20.3274 26.5647 20.6912 26.9269 21.1399 26.9269H23.4675C23.9162 26.9269 24.28 26.5647 24.28 26.1179V23.8C24.28 23.3532 23.9162 22.991 23.4675 22.991Z" fill="#DA4A27"/>
    <path d="M16.6916 22.991H14.364C13.9153 22.991 13.5515 23.3532 13.5515 23.8V26.1179C13.5515 26.5647 13.9153 26.9269 14.364 26.9269H16.6916C17.1403 26.9269 17.5041 26.5647 17.5041 26.1179V23.8C17.5041 23.3532 17.1403 22.991 16.6916 22.991Z" fill="#DA4A27"/>
    <path d="M9.91574 22.991H7.58811C7.13939 22.991 6.77563 23.3532 6.77563 23.8V26.1179C6.77563 26.5647 7.13939 26.9269 7.58811 26.9269H9.91574C10.3645 26.9269 10.7282 26.5647 10.7282 26.1179V23.8C10.7282 23.3532 10.3645 22.991 9.91574 22.991Z" fill="#DA4A27"/>
    <path d="M3.13986 22.991H0.81223C0.363513 22.991 -0.000244141 23.3532 -0.000244141 23.8V26.1179C-0.000244141 26.5647 0.363513 26.9269 0.81223 26.9269H3.13986C3.58857 26.9269 3.95233 26.5647 3.95233 26.1179V23.8C3.95233 23.3532 3.58857 22.991 3.13986 22.991Z" fill="#DA4A27"/>
    <path d="M17.5039 32.9277V30.6098C17.5039 30.163 17.1401 29.8008 16.6914 29.8008H14.3638C13.9151 29.8008 13.5513 30.163 13.5513 30.6098V32.9277C13.5513 33.3745 13.9151 33.7367 14.3638 33.7367H16.6914C17.1401 33.7367 17.5039 33.3745 17.5039 32.9277Z" fill="#DA4A27"/>
    <path d="M13.52 9.2395H17.4726C16.9968 9.71325 16.6194 10.2757 16.3619 10.8947C16.1044 11.5137 15.9719 12.1771 15.9719 12.8472C15.9719 13.5172 16.1044 14.1806 16.3619 14.7996C16.6194 15.4186 16.9968 15.9811 17.4726 16.4548H13.52C13.9958 15.9811 14.3732 15.4186 14.6307 14.7996C14.8882 14.1806 15.0208 13.5172 15.0208 12.8472C15.0208 12.1771 14.8882 11.5137 14.6307 10.8947C14.3732 10.2757 13.9958 9.71325 13.52 9.2395Z" fill="#949597"/>
    <path d="M13.52 24.7334H17.4726C16.9968 25.2071 16.6194 25.7696 16.3619 26.3886C16.1044 27.0076 15.9719 27.671 15.9719 28.3411C15.9719 29.0111 16.1044 29.6745 16.3619 30.2935C16.6194 30.9125 16.9968 31.475 17.4726 31.9487H13.52C13.9958 31.475 14.3732 30.9125 14.6307 30.2935C14.8882 29.6745 15.0208 29.0111 15.0208 28.3411C15.0208 27.671 14.8882 27.0076 14.6307 26.3886C14.3732 25.7696 13.9958 25.2071 13.52 24.7334Z" fill="#DA4A27"/>
    <path d="M15.7317 22.9998V26.9357C15.2559 26.4619 14.6911 26.0861 14.0694 25.8296C13.4477 25.5732 12.7814 25.4412 12.1085 25.4412C11.4357 25.4412 10.7694 25.5732 10.1477 25.8296C9.52601 26.0861 8.96115 26.4619 8.48535 26.9357V22.9998C9.44652 23.9562 10.7497 24.4935 12.1085 24.4935C13.4674 24.4935 14.7706 23.9562 15.7317 22.9998Z" fill="#DA4A27"/>
    <path d="M22.5701 29.7471V33.683C22.0943 33.2092 21.5295 32.8334 20.9078 32.577C20.2861 32.3205 19.6198 32.1885 18.9469 32.1885C18.274 32.1885 17.6077 32.3205 16.9861 32.577C16.3644 32.8334 15.7995 33.2092 15.3237 33.683V29.7471C16.2849 30.7035 17.5881 31.2408 18.9469 31.2408C20.3057 31.2408 21.6089 30.7035 22.5701 29.7471Z" fill="#DA4A27"/>
    <path d="M23.1714 14.0571H20.8437C20.395 14.0571 20.0312 14.4194 20.0312 14.8662V17.184C20.0312 17.6309 20.395 17.9931 20.8437 17.9931H23.1714C23.6201 17.9931 23.9838 17.6309 23.9838 17.184V14.8662C23.9838 14.4194 23.6201 14.0571 23.1714 14.0571Z" fill="#949597"/>
    <path d="M23.1714 7.27832H20.8437C20.395 7.27832 20.0312 7.64055 20.0312 8.08738V10.4052C20.0312 10.8521 20.395 11.2143 20.8437 11.2143H23.1714C23.6201 11.2143 23.9838 10.8521 23.9838 10.4052V8.08738C23.9838 7.64055 23.6201 7.27832 23.1714 7.27832Z" fill="#949597"/>
    <path d="M23.1714 0.499756H20.8437C20.395 0.499756 20.0312 0.861984 20.0312 1.30881V3.62666C20.0312 4.07349 20.395 4.43572 20.8437 4.43572H23.1714C23.6201 4.43572 23.9838 4.07349 23.9838 3.62666V1.30881C23.9838 0.861984 23.6201 0.499756 23.1714 0.499756Z" fill="#949597"/>
    <path d="M19.9998 2.30469H23.9523C23.4765 2.77844 23.0991 3.34087 22.8416 3.95987C22.5841 4.57888 22.4516 5.24233 22.4516 5.91234C22.4516 6.58235 22.5841 7.2458 22.8416 7.86481C23.0991 8.48381 23.4765 9.04625 23.9523 9.51999H19.9998C20.4755 9.04625 20.853 8.48381 21.1105 7.86481C21.368 7.2458 21.5005 6.58235 21.5005 5.91234C21.5005 5.24233 21.368 4.57888 21.1105 3.95987C20.853 3.34087 20.4755 2.77844 19.9998 2.30469Z" fill="#949597"/>
    <path d="M19.9998 9.2395H23.9523C23.4765 9.71325 23.0991 10.2757 22.8416 10.8947C22.5841 11.5137 22.4516 12.1771 22.4516 12.8472C22.4516 13.5172 22.5841 14.1806 22.8416 14.7996C23.0991 15.4186 23.4765 15.9811 23.9523 16.4548H19.9998C20.4755 15.9811 20.853 15.4186 21.1105 14.7996C21.368 14.1806 21.5005 13.5172 21.5005 12.8472C21.5005 12.1771 21.368 11.5137 21.1105 10.8947C20.853 10.2757 20.4755 9.71325 19.9998 9.2395Z" fill="#949597"/>
    <path d="M9.91574 14.0571H7.58811C7.13939 14.0571 6.77563 14.4194 6.77563 14.8662V17.184C6.77563 17.6309 7.13939 17.9931 7.58811 17.9931H9.91574C10.3645 17.9931 10.7282 17.6309 10.7282 17.184V14.8662C10.7282 14.4194 10.3645 14.0571 9.91574 14.0571Z" fill="#949597"/>
    <path d="M3.13986 14.0571H0.812229C0.363513 14.0571 -0.000244141 14.4194 -0.000244141 14.8662V17.184C-0.000244141 17.6309 0.363513 17.9931 0.812229 17.9931H3.13986C3.58857 17.9931 3.95233 17.6309 3.95233 17.184V14.8662C3.95233 14.4194 3.58857 14.0571 3.13986 14.0571Z" fill="#949597"/>
    <path d="M15.5278 17.9929V14.0403C16.0016 14.5161 16.564 14.8936 17.183 15.1511C17.802 15.4086 18.4655 15.5411 19.1355 15.5411C19.8055 15.5411 20.4689 15.4086 21.088 15.1511C21.707 14.8936 22.2694 14.5161 22.7431 14.0403V17.9929C22.2694 17.5171 21.707 17.1397 21.088 16.8822C20.4689 16.6247 19.8055 16.4922 19.1355 16.4922C18.4655 16.4922 17.802 16.6247 17.183 16.8822C16.564 17.1397 16.0016 17.5171 15.5278 17.9929Z" fill="#949597"/>
    <path d="M8.28101 18.033V14.0804C8.75475 14.5562 9.31719 14.9336 9.93619 15.1911C10.5552 15.4486 11.2186 15.5811 11.8887 15.5811C12.5587 15.5811 13.2221 15.4486 13.8411 15.1911C14.4601 14.9336 15.0226 14.5562 15.4963 14.0804V18.033C15.0226 17.5572 14.4601 17.1797 13.8411 16.9222C13.2221 16.6647 12.5587 16.5322 11.8887 16.5322C11.2186 16.5322 10.5552 16.6647 9.93619 16.9222C9.31719 17.1797 8.75475 17.5572 8.28101 18.033Z" fill="#949597"/>
    <path d="M1.70947 17.9929L1.70947 14.0403C2.18322 14.5161 2.74566 14.8936 3.36466 15.1511C3.98366 15.4086 4.64711 15.5411 5.31713 15.5411C5.98714 15.5411 6.65059 15.4086 7.26959 15.1511C7.8886 14.8936 8.45103 14.5161 8.92478 14.0403V17.9929C8.45103 17.5171 7.8886 17.1397 7.26959 16.8822C6.65059 16.6247 5.98714 16.4922 5.31713 16.4922C4.64711 16.4922 3.98366 16.6247 3.36466 16.8822C2.74566 17.1397 2.18322 17.5171 1.70947 17.9929Z" fill="#949597"/>
</svg>
