<svg xmlns="http://www.w3.org/2000/svg" viewBox="0 0 25 39">
  <g transform="translate(0 -1013.4)">
    <path
      d="m12.5 1013.9c-6.6169 0-11.98 5.3547-11.98 11.962 0 4.7357 2.7733 8.8206 6.771 10.759l5.2085 14.238c1.9367-4.729 3.6869-9.5241 5.4038-14.335 3.8908-1.9764 6.5757-6.0043 6.5757-10.662 0-6.6075-5.3626-11.962-11.98-11.962z"
      stroke="#bbb"
      fill="#ccc"
    />
    <path
      d="m21.964 11.5c0 5.227-4.2373 9.4643-9.4643 9.4643s-9.4643-4.2373-9.4643-9.4643 4.2373-9.4643 9.4643-9.4643 9.4643 4.2373 9.4643 9.4643z"
      transform="matrix(1.1041 0 0 1.1041 -1.3018 1013.2)"
      fill="#80461b"
    />
  </g>
</svg>