<svg width="70" height="71" viewBox="0 0 70 71" fill="none" xmlns="http://www.w3.org/2000/svg">
    <path d="M49.5833 56.8084H14.5833V21.1667H35V15.3334H14.5833C11.375 15.3334 8.75 17.9584 8.75 21.1667V56.1667C8.75 59.3751 11.375 62.0001 14.5833 62.0001H49.5833C52.7917 62.0001 55.4167 59.3751 55.4167 56.1667V35.7501H49.5833V56.8084Z" fill="white"/>
    <path d="M55.4167 6.58339H49.5834V15.3334H40.8334C40.8625 15.3626 40.8334 21.1667 40.8334 21.1667H49.5834V29.8876C49.6125 29.9167 55.4167 29.8876 55.4167 29.8876V21.1667H64.1667V15.3334H55.4167V6.58339Z" fill="white"/>
    <path d="M43.75 27.0001H20.4166V32.8334H43.75V27.0001Z" fill="white"/>
    <path d="M20.4166 35.7501V41.5834H43.75V35.7501H35H20.4166Z" fill="white"/>
    <path d="M43.75 44.5001H20.4166V50.3334H43.75V44.5001Z" fill="white"/>
</svg>
